<svg width="26" height="29" viewBox="0 0 26 29" fill="none" xmlns="http://www.w3.org/2000/svg">
<path d="M4.33333 11.5871C4.33254 9.77818 4.89267 8.01389 5.93588 6.53942C6.97908 5.06494 8.45357 3.95352 10.1544 3.35958C10.0886 2.94502 10.113 2.52104 10.2261 2.1169C10.3392 1.71275 10.5382 1.33806 10.8094 1.01868C11.0806 0.69929 11.4175 0.442815 11.797 0.266946C12.1764 0.0910766 12.5893 0 13.0072 0C13.4251 0 13.838 0.0910766 14.2175 0.266946C14.5969 0.442815 14.9339 0.69929 15.2051 1.01868C15.4763 1.33806 15.6753 1.71275 15.7884 2.1169C15.9014 2.52104 15.9259 2.94502 15.86 3.35958C17.5582 3.95595 19.0295 5.06842 20.07 6.54268C21.1105 8.01695 21.6685 9.77994 21.6667 11.5871V20.2936L26 23.1957V24.6468H0V23.1957L4.33333 20.2936V11.5871ZM15.8889 26.0979C15.8889 26.8676 15.5845 27.6057 15.0428 28.15C14.501 28.6942 13.7662 29 13 29C12.2338 29 11.499 28.6942 10.9572 28.15C10.4155 27.6057 10.1111 26.8676 10.1111 26.0979H15.8889Z" fill="#281F5E"/>
</svg>
