<svg width="23" height="29" viewBox="0 0 23 29" fill="none" xmlns="http://www.w3.org/2000/svg">
<path fill-rule="evenodd" clip-rule="evenodd" d="M12.7432 29C18.1071 29 22.4516 24.6742 22.4516 19.3333V6.94792C22.4516 6.54733 22.2918 6.16315 22.0073 5.87989C21.7228 5.59663 21.337 5.4375 20.9347 5.4375C20.5324 5.4375 20.1465 5.59663 19.862 5.87989C19.5776 6.16315 19.4177 6.54733 19.4177 6.94792V13.8958C19.4177 14.2342 19.1508 14.5 18.811 14.5C18.4712 14.5 18.2042 14.2342 18.2042 13.8958V3.32292C18.2042 2.92233 18.0444 2.53815 17.7599 2.25489C17.4754 1.97163 17.0896 1.8125 16.6873 1.8125C16.2849 1.8125 15.8991 1.97163 15.6146 2.25489C15.3301 2.53815 15.1703 2.92233 15.1703 3.32292V13.8958C15.1703 14.2342 14.9033 14.5 14.5635 14.5C14.2237 14.5 13.9568 14.2342 13.9568 13.8958V1.51042C13.9568 1.10983 13.7969 0.725649 13.5125 0.442391C13.228 0.159133 12.8421 0 12.4398 0C12.0375 0 11.6517 0.159133 11.3672 0.442391C11.0827 0.725649 10.9229 1.10983 10.9229 1.51042V13.8958C10.9229 14.2342 10.6559 14.5 10.3161 14.5C9.97632 14.5 9.70934 14.2342 9.70934 13.8958V3.92708C9.70934 3.5265 9.54952 3.14232 9.26504 2.85906C8.98056 2.5758 8.59472 2.41667 8.1924 2.41667C7.79009 2.41667 7.40425 2.5758 7.11977 2.85906C6.83529 3.14232 6.67547 3.5265 6.67547 3.92708V18.125H6.16577C5.92306 18.125 5.70463 17.98 5.60754 17.7383L4.0542 13.8596C3.78722 13.195 3.22898 12.6754 2.5494 12.4579L1.59069 12.1438C1.37148 12.0724 1.13639 12.0647 0.912944 12.1216C0.689501 12.1785 0.486964 12.2976 0.329057 12.4649C0.17115 12.6323 0.0644119 12.841 0.0213458 13.0666C-0.0217203 13.2922 0.000668621 13.5254 0.0858904 13.7388L3.76295 22.9342C5.23134 26.5954 8.78704 29 12.7432 29ZM13.1196 17.4027C12.9392 17.3311 12.7462 17.2963 12.5521 17.3004C12.3579 17.3044 12.1666 17.3472 11.9893 17.4263C11.8119 17.5054 11.6522 17.6191 11.5195 17.7608C11.3867 17.9026 11.2837 18.0694 11.2164 18.2515C11.1912 18.3196 11.1713 18.3892 11.1566 18.4599C11.0184 18.5261 10.8889 18.61 10.7715 18.7099C10.5654 18.8853 10.4019 19.1052 10.2933 19.3532C10.1848 19.6011 10.1341 19.8705 10.1451 20.1409C10.1511 20.2895 10.1757 20.4364 10.2179 20.578C10.112 20.7078 10.0246 20.8523 9.95855 21.0075C9.8448 21.2749 9.79811 21.5661 9.82255 21.8557C9.84699 22.1453 9.94182 22.4245 10.0988 22.6691C10.2009 22.8282 10.3273 22.9695 10.4728 23.0882C10.4787 23.2297 10.5014 23.3703 10.5408 23.5071C10.6082 23.7414 10.7229 23.9594 10.8779 24.1476C11.0328 24.3359 11.2247 24.4903 11.4417 24.6015C11.6587 24.7127 11.8962 24.7782 12.1395 24.794C12.3828 24.8098 12.6268 24.7755 12.8563 24.6933C13.0858 24.6111 13.2961 24.4827 13.4741 24.3161C13.5054 24.2868 13.5355 24.2565 13.5645 24.2251C13.5936 24.2565 13.6237 24.2868 13.655 24.3161C13.833 24.4828 14.0433 24.6111 14.2728 24.6933C14.5024 24.7755 14.7463 24.8098 14.9896 24.794C15.2329 24.7782 15.4704 24.7127 15.6874 24.6015C15.9044 24.4904 16.0963 24.3359 16.2512 24.1477C16.4062 23.9594 16.5209 23.7414 16.5883 23.5071C16.6277 23.3703 16.6504 23.2297 16.6563 23.0882C16.8018 22.9695 16.9282 22.8282 17.0303 22.6691C17.1873 22.4245 17.2821 22.1453 17.3066 21.8557C17.331 21.5661 17.2843 21.275 17.1706 21.0075C17.1045 20.8523 17.0171 20.7078 16.9112 20.578C16.9534 20.4364 16.978 20.2896 16.984 20.1409C16.995 19.8705 16.9443 19.6011 16.8358 19.3532C16.7273 19.1053 16.5637 18.8853 16.3576 18.7099C16.2402 18.61 16.1107 18.5261 15.9725 18.4599C15.9578 18.3892 15.9379 18.3196 15.9127 18.2515C15.8454 18.0694 15.7424 17.9026 15.6096 17.7609C15.4769 17.6192 15.3172 17.5054 15.1399 17.4263C14.9625 17.3473 14.7712 17.3044 14.5771 17.3004C14.3829 17.2963 14.19 17.3312 14.0095 17.4028L13.7138 17.8394C13.6792 17.7968 13.6422 17.756 13.6029 17.7174C13.4644 17.5814 13.3001 17.4744 13.1196 17.4027ZM10.486 22.7853C10.473 22.886 10.4686 22.9873 10.4728 23.0882C10.5464 23.1481 10.6249 23.2023 10.7076 23.2501C10.5447 23.1499 10.4627 22.9655 10.486 22.7853ZM11.568 23.4893C11.5788 23.4895 11.5897 23.4896 11.6005 23.4895C11.8624 23.4894 12.0746 23.277 12.0745 23.0152C12.0743 22.7533 11.862 22.5411 11.6001 22.5412C11.4602 22.5413 11.3226 22.5062 11.1999 22.4393C11.1964 22.4373 11.1929 22.4352 11.1893 22.4332C11.0708 22.3663 10.9704 22.2714 10.8969 22.1569C10.8234 22.0423 10.7789 21.9116 10.7675 21.7759C10.7561 21.6403 10.7779 21.5039 10.8312 21.3787C10.8826 21.2577 10.9619 21.1507 11.0624 21.0662C11.0662 21.0633 11.07 21.0603 11.0737 21.0572C11.1119 21.0261 11.1528 20.9984 11.1959 20.9745C11.4249 20.8475 11.5075 20.5588 11.3804 20.3299C11.3162 20.2142 11.2108 20.1359 11.0926 20.1031C11.0926 20.1028 11.0926 20.1026 11.0926 20.1024C11.0874 19.9758 11.1112 19.8496 11.162 19.7335C11.2013 19.6438 11.2559 19.5619 11.3233 19.4914C11.4552 19.715 11.7428 19.7911 11.9683 19.6612C12.1952 19.5305 12.2732 19.2406 12.1425 19.0137C12.1015 18.9426 12.0784 18.8628 12.0751 18.7808C12.0749 18.7779 12.0748 18.7751 12.0746 18.7722C12.0726 18.7068 12.0832 18.6416 12.1059 18.5803C12.1294 18.5167 12.1653 18.4585 12.2116 18.4091C12.2579 18.3597 12.3136 18.32 12.3755 18.2924C12.4374 18.2648 12.5041 18.2499 12.5718 18.2485C12.6395 18.2471 12.7069 18.2592 12.7698 18.2842C12.8328 18.3092 12.8901 18.3465 12.9384 18.394C12.9867 18.4414 13.0251 18.4981 13.0512 18.5606C13.0773 18.6231 13.0906 18.6901 13.0904 18.7579V18.7593V18.7599L13.0904 18.7599V20.0568C13.0772 20.2491 13.0087 20.4337 12.8929 20.5881C12.7743 20.7462 12.6115 20.8656 12.4251 20.9311C12.1781 21.018 12.0483 21.2887 12.1352 21.5358C12.2221 21.7828 12.4928 21.9126 12.7398 21.8257C12.8624 21.7826 12.9798 21.7275 13.0904 21.6616V23.0154V23.0159L13.0904 23.022C13.0893 23.1337 13.0658 23.2442 13.0213 23.3468C12.9758 23.4515 12.9093 23.5458 12.826 23.6238C12.7426 23.7019 12.6441 23.762 12.5366 23.8005C12.4291 23.839 12.3149 23.855 12.2009 23.8476C12.087 23.8403 11.9757 23.8096 11.8741 23.7575C11.7725 23.7054 11.6826 23.6331 11.61 23.5449C11.5952 23.5269 11.5812 23.5084 11.568 23.4893ZM14.0387 21.6615V23.0154L14.0387 23.0159L14.0387 23.0219C14.0398 23.1337 14.0633 23.2442 14.1078 23.3468C14.1533 23.4515 14.2198 23.5458 14.3031 23.6239C14.3865 23.7019 14.485 23.762 14.5925 23.8005C14.7 23.839 14.8142 23.8551 14.9282 23.8477C15.0421 23.8403 15.1534 23.8096 15.255 23.7575C15.3566 23.7055 15.4465 23.6331 15.5191 23.545C15.5339 23.527 15.5479 23.5084 15.5612 23.4893C15.5504 23.4895 15.5396 23.4896 15.5288 23.4895C15.2669 23.4894 15.0547 23.277 15.0549 23.0152C15.055 22.7533 15.2674 22.5411 15.5292 22.5412C15.6684 22.5413 15.8053 22.5066 15.9276 22.4404C15.9316 22.4379 15.9357 22.4356 15.9398 22.4332C16.0583 22.3663 16.1587 22.2715 16.2322 22.1569C16.3057 22.0424 16.3502 21.9116 16.3616 21.776C16.3731 21.6403 16.3512 21.504 16.2979 21.3787C16.2459 21.2565 16.1656 21.1485 16.0635 21.0636C16.0609 21.0615 16.0582 21.0594 16.0556 21.0572C16.0174 21.0261 15.9765 20.9984 15.9334 20.9745C15.7045 20.8475 15.6219 20.5588 15.7489 20.3299C15.8131 20.2142 15.9184 20.136 16.0365 20.1031C16.0365 20.1029 16.0365 20.1027 16.0365 20.1024C16.0417 19.9758 16.0179 19.8496 15.9671 19.7335C15.9278 19.6439 15.8732 19.562 15.806 19.4916C15.6739 19.7151 15.3862 19.7911 15.1608 19.6611C14.9339 19.5302 14.8562 19.2402 14.9871 19.0134C15.0255 18.9468 15.0483 18.8723 15.0538 18.7957C15.0538 18.7902 15.054 18.7846 15.0542 18.7791C15.0572 18.7114 15.0467 18.6438 15.0232 18.5803C14.9997 18.5168 14.9638 18.4586 14.9175 18.4091C14.8712 18.3597 14.8155 18.32 14.7536 18.2924C14.6918 18.2648 14.625 18.2499 14.5573 18.2485C14.4896 18.2471 14.4223 18.2592 14.3593 18.2842C14.2963 18.3092 14.239 18.3465 14.1907 18.394C14.1424 18.4414 14.104 18.4981 14.0779 18.5606C14.0529 18.6205 14.0396 18.6846 14.0387 18.7495L14.0387 18.7593H14.0387V18.7593V18.7607H14.0387L14.0387 18.7599V20.0534C14.0513 20.247 14.12 20.4328 14.2365 20.5881C14.355 20.7462 14.5178 20.8656 14.7042 20.9311C14.9512 21.018 15.081 21.2887 14.9941 21.5358C14.9072 21.7828 14.6365 21.9126 14.3895 21.8257C14.2668 21.7826 14.1494 21.7274 14.0387 21.6615ZM11.4729 18.3437L11.4687 18.3448C11.361 18.3734 11.2565 18.412 11.1566 18.4599C11.1319 18.5784 11.1221 18.6998 11.1275 18.8213L11.1276 18.8213C11.1276 18.8208 11.1276 18.8202 11.1275 18.8196C11.1184 18.5956 11.2661 18.4016 11.4729 18.3437ZM10.4754 20.3215L10.4752 20.3212C10.3806 20.3981 10.2944 20.4842 10.2179 20.578C10.2511 20.6893 10.2951 20.7974 10.3496 20.9007C10.2529 20.7066 10.2997 20.4646 10.4749 20.3219C10.4751 20.3218 10.4752 20.3216 10.4754 20.3215Z" fill="#281F5E"/>
</svg>
