<svg width="47" height="47" viewBox="0 0 47 47" fill="none" xmlns="http://www.w3.org/2000/svg">
<path d="M18.4118 44.0002C17.4072 40.7253 15.8923 38.2828 13.8659 36.6745C10.8267 34.2627 5.99791 35.7623 4.21439 33.2736C2.43088 30.7848 5.46388 26.2092 6.52783 23.5093C7.59281 20.8095 2.44831 19.8552 3.04896 19.0885C3.44872 18.577 6.04916 17.1031 10.8482 14.6646C12.2115 6.88887 17.2473 3 25.9578 3C39.0226 3 44 14.0762 44 21.1221C44 28.1659 37.973 35.7551 29.3875 37.392C28.6198 38.5093 29.7268 40.713 32.7085 44.0002" stroke="#B3B5C6" stroke-width="4.667" stroke-linecap="round" stroke-linejoin="round"/>
<path d="M23.1435 11.7855C23.5751 11.7855 24.0023 11.8705 24.401 12.0356C24.7997 12.2008 25.1619 12.4428 25.467 12.7479C25.7722 13.053 26.0142 13.4153 26.1793 13.814C26.3445 14.2126 26.4295 14.6399 26.4295 15.0714V24.0042C26.4282 24.5105 26.3247 25.0114 26.1251 25.4768C25.9256 25.9421 25.6341 26.3624 25.2682 26.7124C24.9023 27.0624 24.4695 27.335 23.9958 27.5136C23.522 27.6923 23.017 27.7735 22.5111 27.7523C22.0052 27.7311 21.5088 27.6079 21.0516 27.3902C20.5945 27.1725 20.186 26.8647 19.8507 26.4853C19.5153 26.1059 19.2601 25.6627 19.1002 25.1823C18.9403 24.7018 18.8791 24.1941 18.9202 23.6894C18.1373 22.8472 17.6431 21.2042 17.6431 19.8305C17.6431 17.9611 18.5612 16.1442 19.8756 15.4276C19.8255 14.9687 19.8727 14.5043 20.0142 14.0648C20.1556 13.6253 20.3881 13.2206 20.6964 12.8769C21.0047 12.5333 21.382 12.2585 21.8037 12.0704C22.2253 11.8824 22.6819 11.7853 23.1435 11.7855Z" stroke="#B3B5C6" stroke-width="2" stroke-linecap="round" stroke-linejoin="round"/>
<path d="M21.6125 17.6615C21.1293 17.5511 20.0372 16.8345 19.8729 15.4373M23.6268 21.3492C25.5984 21.1283 26.3785 19.049 26.4296 18.2027M19.9267 21.7178C19.4352 22.1044 19.0431 22.9839 18.9175 23.688M29.7155 11.7855C28.844 11.7855 28.0082 12.1317 27.392 12.7479C26.7757 13.3641 26.4296 14.1999 26.4296 15.0714V24.0042C26.4308 24.5105 26.5343 25.0114 26.7339 25.4768C26.9334 25.9421 27.2249 26.3624 27.5908 26.7124C27.9567 27.0624 28.3895 27.335 28.8633 27.5136C29.337 27.6923 29.842 27.7735 30.3479 27.7523C30.8538 27.7311 31.3502 27.6079 31.8074 27.3902C32.2646 27.1725 32.673 26.8647 33.0084 26.4853C33.3437 26.1059 33.599 25.6627 33.7589 25.1823C33.9187 24.7018 33.98 24.1941 33.9389 23.6894C34.7217 22.8472 35.2146 21.2042 35.2146 19.8305C35.2146 17.9611 34.2978 16.1442 32.9821 15.4276C33.0321 14.9688 32.9849 14.5045 32.8436 14.0651C32.7022 13.6257 32.4699 13.2211 32.1617 12.8775C31.8535 12.5338 31.4764 12.259 31.0549 12.0709C30.6334 11.8827 30.177 11.7855 29.7155 11.7855Z" stroke="#B3B5C6" stroke-width="2" stroke-linecap="round" stroke-linejoin="round"/>
<path d="M31.2467 17.6615C31.73 17.551 32.8221 16.8345 32.9864 15.4373M29.2324 21.3492C27.2608 21.1283 26.4808 19.049 26.4297 18.2027M32.9325 21.7178C33.424 22.1044 33.8161 22.9838 33.9418 23.688" stroke="#B3B5C6" stroke-width="2" stroke-linecap="round" stroke-linejoin="round"/>
</svg>
