<svg width="40" height="45" viewBox="0 0 40 45" fill="none" xmlns="http://www.w3.org/2000/svg">
<path d="M6.66667 17.9801C6.66545 15.173 7.52718 12.4353 9.13212 10.1474C10.7371 7.85939 13.0055 6.13477 15.6222 5.21313C15.5209 4.56986 15.5585 3.91196 15.7325 3.28484C15.9064 2.65772 16.2126 2.0763 16.6298 1.5807C17.047 1.08511 17.5654 0.687127 18.1492 0.414227C18.733 0.141326 19.3682 0 20.0111 0C20.654 0 21.2893 0.141326 21.873 0.414227C22.4568 0.687127 22.9752 1.08511 23.3924 1.5807C23.8097 2.0763 24.1158 2.65772 24.2898 3.28484C24.4637 3.91196 24.5013 4.56986 24.4 5.21313C27.0126 6.13855 29.2762 7.86479 30.8769 10.1524C32.4777 12.4401 33.3362 15.1758 33.3333 17.9801V31.49L40 35.9934V38.245H0V35.9934L6.66667 31.49V17.9801ZM24.4444 40.4967C24.4444 41.691 23.9762 42.8365 23.1427 43.681C22.3092 44.5255 21.1787 45 20 45C18.8213 45 17.6908 44.5255 16.8573 43.681C16.0238 42.8365 15.5556 41.691 15.5556 40.4967H24.4444Z" fill="#B3B5C6"/>
</svg>
