<svg width="45" height="45" viewBox="0 0 45 45" fill="none" xmlns="http://www.w3.org/2000/svg">
<path fill-rule="evenodd" clip-rule="evenodd" d="M26.4301 5.55097V5.55099L26.6601 7.85109C26.8235 9.48463 26.9051 10.3014 27.458 10.5304C28.0108 10.7594 28.6461 10.2396 29.9167 9.2L31.7057 7.73625C32.3714 7.19154 32.7043 6.91918 33.0892 6.93838C33.474 6.95757 33.7781 7.2617 34.3864 7.86995L37.13 10.6136C37.7382 11.2218 38.0424 11.5259 38.0616 11.9108C38.0807 12.2956 37.8084 12.6285 37.2637 13.2943L35.7999 15.0833C34.7603 16.3539 34.2405 16.9892 34.4695 17.542C34.6985 18.0948 35.5153 18.1765 37.1488 18.3399L39.449 18.5699C40.3049 18.6555 40.7329 18.6983 40.9915 18.984C41.25 19.2697 41.25 19.6998 41.25 20.56V24.44C41.25 25.3002 41.25 25.7303 40.9915 26.016C40.7329 26.3017 40.3049 26.3445 39.449 26.4301L37.1495 26.66C35.516 26.8234 34.6992 26.9051 34.4702 27.4579C34.2412 28.0107 34.761 28.646 35.8006 29.9166L37.2638 31.7049C37.8085 32.3707 38.0808 32.7036 38.0616 33.0884C38.0424 33.4732 37.7383 33.7774 37.1301 34.3856L34.3865 37.1292C33.7782 37.7375 33.4741 38.0416 33.0892 38.0608C32.7044 38.08 32.3715 37.8076 31.7058 37.2629L29.9167 35.7992C28.6461 34.7596 28.0109 34.2398 27.458 34.4688C26.9052 34.6978 26.8235 35.5145 26.6602 37.1481L26.4301 39.449C26.3445 40.3049 26.3017 40.7329 26.016 40.9915C25.7303 41.25 25.3002 41.25 24.44 41.25H20.56C19.6998 41.25 19.2697 41.25 18.984 40.9915C18.6983 40.7329 18.6555 40.3049 18.5699 39.449L18.3399 37.1488C18.1765 35.5153 18.0949 34.6985 17.542 34.4695C16.9892 34.2405 16.3539 34.7603 15.0833 35.7999L13.2942 37.2638C12.6284 37.8085 12.2955 38.0808 11.9107 38.0616C11.5259 38.0424 11.2217 37.7383 10.6135 37.1301L7.86987 34.3865C7.26161 33.7782 6.95749 33.4741 6.93829 33.0892C6.9191 32.7044 7.19146 32.3715 7.73617 31.7058L9.19999 29.9167C10.2396 28.6461 10.7593 28.0108 10.5304 27.458C10.3014 26.9051 9.48462 26.8235 7.85108 26.6601L5.55099 26.4301C4.69506 26.3445 4.26709 26.3017 4.00855 26.016C3.75 25.7303 3.75 25.3002 3.75 24.44V20.56C3.75 19.6998 3.75 19.2697 4.00855 18.984C4.26709 18.6983 4.69506 18.6555 5.55099 18.5699L7.85178 18.3398C9.48532 18.1765 10.3021 18.0948 10.5311 17.542C10.7601 16.9892 10.2403 16.3539 9.20069 15.0833L7.73625 13.2934C7.19154 12.6276 6.91919 12.2948 6.93838 11.9099C6.95757 11.5251 7.2617 11.221 7.86995 10.6127L10.6136 7.8691C11.2218 7.26085 11.5259 6.95672 11.9108 6.93753C12.2956 6.91833 12.6285 7.19069 13.2943 7.7354L15.0834 9.19926C16.354 10.2388 16.9893 10.7586 17.5421 10.5296C18.0949 10.3007 18.1766 9.48389 18.34 7.85036L18.5699 5.55099C18.6555 4.69506 18.6983 4.26709 18.984 4.00855C19.2697 3.75 19.6998 3.75 20.56 3.75H24.44C25.3002 3.75 25.7303 3.75 26.016 4.00855C26.3017 4.26709 26.3445 4.69505 26.4301 5.55097ZM22.5 30C26.6421 30 30 26.6421 30 22.5C30 18.3579 26.6421 15 22.5 15C18.3579 15 15 18.3579 15 22.5C15 26.6421 18.3579 30 22.5 30Z" fill="#B3B5C6"/>
</svg>
