<svg width="21" height="21" viewBox="0 0 21 21" fill="none" xmlns="http://www.w3.org/2000/svg">
<path d="M10.7499 0C14.0515 0 17.1085 1.46475 19.1356 3.9312C19.1934 4.00111 19.2365 4.08193 19.2624 4.16885C19.2883 4.25576 19.2964 4.347 19.2863 4.43713C19.2762 4.52725 19.2481 4.61443 19.2037 4.69347C19.1592 4.7725 19.0993 4.84179 19.0275 4.8972C18.8814 5.01176 18.6964 5.06487 18.5118 5.04526C18.3271 5.02566 18.1574 4.93489 18.0386 4.7922C17.1522 3.71829 16.0385 2.85456 14.7779 2.26335C13.5173 1.67213 12.1412 1.36817 10.7488 1.3734C5.5891 1.3734 1.40567 5.46 1.40567 10.5C1.40567 15.54 5.5891 19.6266 10.7488 19.6266C12.1612 19.632 13.5567 19.3193 14.8317 18.7116C16.1068 18.104 17.2287 17.217 18.1142 16.1164C18.231 15.9723 18.3994 15.8793 18.5836 15.8571C18.7678 15.835 18.9533 15.8854 19.101 15.9978C19.1734 16.0523 19.2341 16.1207 19.2796 16.1991C19.325 16.2775 19.3542 16.3643 19.3655 16.4542C19.3767 16.5441 19.3698 16.6354 19.3451 16.7225C19.3204 16.8097 19.2785 16.8911 19.2217 16.9617C17.1977 19.4922 14.0998 21 10.7499 21C4.8112 21 0 16.2991 0 10.5C0 4.70085 4.81225 0 10.7499 0ZM17.9494 7.518L20.7901 10.3603C21.0652 10.6344 21.0704 11.0744 20.8027 11.3432L18.0271 14.1183C17.8954 14.2472 17.7178 14.3185 17.5336 14.3165C17.3493 14.3146 17.1734 14.2395 17.0445 14.1078C16.979 14.044 16.9268 13.9679 16.8908 13.8839C16.8548 13.7999 16.8358 13.7097 16.8347 13.6183C16.8336 13.5269 16.8506 13.4362 16.8846 13.3514C16.9186 13.2665 16.969 13.1893 17.0329 13.1239L18.6569 11.4996H7.83356C7.7423 11.5007 7.65171 11.4838 7.56696 11.4499C7.48222 11.416 7.40499 11.3657 7.33967 11.302C7.27436 11.2382 7.22224 11.1622 7.1863 11.0783C7.15036 10.9944 7.1313 10.9042 7.1302 10.8129C7.1302 10.4328 7.44514 10.1251 7.83356 10.1251H18.6139L16.9783 8.48925C16.8465 8.36044 16.7712 8.18454 16.7691 8.00024C16.7669 7.81594 16.838 7.63832 16.9668 7.50645C17.0986 7.37768 17.2762 7.30656 17.4605 7.30872C17.6447 7.31089 17.8206 7.38617 17.9494 7.518Z" fill="#281F5E"/>
</svg>
