<svg width="36" height="36" viewBox="0 0 36 36" fill="none" xmlns="http://www.w3.org/2000/svg">
<circle cx="18" cy="18" r="17.6327" fill="#B3B5C6" stroke="#281F5E" stroke-width="0.734694"/>
<path d="M12.1225 16.0074V16.0073C12.122 14.8451 12.4788 13.7121 13.1427 12.7656C13.8066 11.8193 14.7443 11.1067 15.825 10.7261L16.1134 10.6245L16.0658 10.3224C16.0293 10.0906 16.0429 9.8536 16.1055 9.62774C16.1682 9.40189 16.2783 9.19285 16.4281 9.01493C16.5779 8.83703 16.7637 8.69451 16.9724 8.59692L16.8169 8.26414L16.9724 8.59692C17.1812 8.49933 17.4081 8.44889 17.6376 8.44889C17.8671 8.44889 18.0941 8.49933 18.3028 8.59692C18.5116 8.69451 18.6974 8.83702 18.8472 9.01493C18.9969 9.19285 19.1071 9.40189 19.1698 9.62774C19.2324 9.8536 19.246 10.0906 19.2095 10.3224L19.162 10.6239L19.4497 10.7258C20.5287 11.108 21.4644 11.8213 22.1265 12.7675C22.7886 13.7138 23.1441 14.846 23.1429 16.0071V16.0074V21.9629V22.158L23.3047 22.2673L26.0817 24.1432V24.5732H9.18375V24.1432L11.9608 22.2673L12.1225 22.158V21.9629V16.0074ZM19.183 26.3005C19.1158 26.5933 18.9691 26.8636 18.7566 27.0788C18.4577 27.3817 18.0533 27.5509 17.6327 27.5509C17.2121 27.5509 16.8077 27.3817 16.5088 27.0788C16.2964 26.8636 16.1497 26.5933 16.0825 26.3005H19.183Z" fill="#281F5E" stroke="#281F5E" stroke-width="0.734694"/>
<circle cx="18" cy="18" r="17.6327" fill="#B3B5C6" stroke="#281F5E" stroke-width="0.734694"/>
<path d="M12.1225 16.0074V16.0073C12.122 14.8451 12.4788 13.7121 13.1427 12.7656C13.8066 11.8193 14.7443 11.1067 15.825 10.7261L16.1134 10.6245L16.0658 10.3224C16.0293 10.0906 16.0429 9.8536 16.1055 9.62774C16.1682 9.40189 16.2783 9.19285 16.4281 9.01493C16.5779 8.83703 16.7637 8.69451 16.9724 8.59692L16.8169 8.26414L16.9724 8.59692C17.1812 8.49933 17.4081 8.44889 17.6376 8.44889C17.8671 8.44889 18.0941 8.49933 18.3028 8.59692C18.5116 8.69451 18.6974 8.83702 18.8472 9.01493C18.9969 9.19285 19.1071 9.40189 19.1698 9.62774C19.2324 9.8536 19.246 10.0906 19.2095 10.3224L19.162 10.6239L19.4497 10.7258C20.5287 11.108 21.4644 11.8213 22.1265 12.7675C22.7886 13.7138 23.1441 14.846 23.1429 16.0071V16.0074V21.9629V22.158L23.3047 22.2673L26.0817 24.1432V24.5732H9.18375V24.1432L11.9608 22.2673L12.1225 22.158V21.9629V16.0074ZM19.183 26.3005C19.1158 26.5933 18.9691 26.8636 18.7566 27.0788C18.4577 27.3817 18.0533 27.5509 17.6327 27.5509C17.2121 27.5509 16.8077 27.3817 16.5088 27.0788C16.2964 26.8636 16.1497 26.5933 16.0825 26.3005H19.183Z" fill="#281F5E" stroke="#281F5E" stroke-width="0.734694"/>
</svg>
