<svg width="17" height="17" viewBox="0 0 17 17" fill="none" xmlns="http://www.w3.org/2000/svg">
<path d="M8.5 12.325C7.74349 12.325 7.00396 12.1007 6.37494 11.6804C5.74593 11.2601 5.25567 10.6627 4.96616 9.96377C4.67666 9.26484 4.60091 8.49576 4.7485 7.75378C4.89608 7.0118 5.26038 6.33026 5.79532 5.79532C6.33025 5.26038 7.0118 4.89609 7.75378 4.7485C8.49576 4.60091 9.26484 4.67666 9.96376 4.96616C10.6627 5.25567 11.2601 5.74593 11.6804 6.37495C12.1007 7.00396 12.325 7.74349 12.325 8.5C12.325 9.51446 11.922 10.4874 11.2047 11.2047C10.4874 11.922 9.51445 12.325 8.5 12.325ZM8.5 2.55C2.55 2.55 0 8.5 0 8.5C0 8.5 2.55 14.45 8.5 14.45C14.45 14.45 17 8.5 17 8.5C17 8.5 14.45 2.55 8.5 2.55Z" fill="#281F5E"/>
<path d="M8.5 10.625C9.67361 10.625 10.625 9.67361 10.625 8.5C10.625 7.32639 9.67361 6.375 8.5 6.375C7.32639 6.375 6.375 7.32639 6.375 8.5C6.375 9.67361 7.32639 10.625 8.5 10.625Z" fill="#281F5E"/>
<rect x="2" y="2.15155" width="1.7294" height="18.0204" rx="0.8647" transform="rotate(-41.7476 2 2.15155)" fill="#281F5E"/>
</svg>
