<svg width="7" height="11" viewBox="0 0 7 11" fill="none" xmlns="http://www.w3.org/2000/svg">
<path d="M-4.24577e-05 1.10894L-4.28032e-05 9.8918C0.000208486 9.98072 0.0223199 10.0679 0.0639111 10.1439C0.105502 10.2199 0.164998 10.2819 0.235994 10.3232C0.306991 10.3645 0.3868 10.3836 0.466831 10.3783C0.546862 10.3731 0.624084 10.3437 0.690184 10.2934L6.40908 5.90194C6.64619 5.71994 6.64619 5.28178 6.40908 5.09929L0.690185 0.70786C0.624222 0.657029 0.546961 0.627221 0.466797 0.621673C0.386633 0.616126 0.306632 0.635052 0.235485 0.676395C0.164337 0.717738 0.104765 0.779916 0.0632419 0.856175C0.021718 0.932434 -0.000168816 1.01986 -4.24577e-05 1.10894Z" fill="#281F5E"/>
</svg>
