<svg width="244" height="118" viewBox="0 0 244 118" fill="none" xmlns="http://www.w3.org/2000/svg">
<path d="M41.751 33.752C42.8603 33.752 44.0123 33.9867 45.207 34.456C46.4017 34.9253 47.5537 35.544 48.663 36.312H48.599C49.7083 37.08 50.5617 38.1253 51.159 39.448C51.7563 40.7707 52.055 42.2853 52.055 43.992V52.76C52.055 56.216 50.903 58.7973 48.599 60.504C47.4897 61.3147 46.3377 61.9547 45.143 62.424C43.991 62.8507 42.8603 63.064 41.751 63.064H27.799C26.6897 63.064 25.5377 62.8507 24.343 62.424C23.191 61.9547 22.0603 61.3147 20.951 60.504C18.647 58.7973 17.495 56.216 17.495 52.76V48.536C17.495 46.5307 18.7537 45.528 21.271 45.528C23.831 45.528 25.111 46.5307 25.111 48.536V52.248C25.111 53.3573 25.431 54.36 26.071 55.256C26.711 56.152 27.8203 56.6 29.399 56.6H40.151C41.7297 56.6 42.839 56.152 43.479 55.256C44.119 54.36 44.439 53.3573 44.439 52.248V44.504C44.439 43.4373 44.119 42.456 43.479 41.56C42.839 40.6213 41.7297 40.152 40.151 40.152H27.799C25.5803 40.152 23.2977 39.3413 20.951 37.72C18.647 35.928 17.495 33.3467 17.495 29.976V22.36C17.495 20.6533 17.7937 19.16 18.391 17.88C18.9883 16.5573 19.8417 15.4907 20.951 14.68H20.887C21.9963 13.9547 23.1483 13.3573 24.343 12.888C25.5377 12.4187 26.6897 12.184 27.799 12.184H41.751C42.8603 12.184 44.0123 12.4187 45.207 12.888C46.4017 13.3573 47.5537 13.9547 48.663 14.68H48.599C49.7083 15.4907 50.5617 16.5573 51.159 17.88C51.7563 19.16 52.055 20.6533 52.055 22.36V26.136C52.055 28.1413 50.775 29.144 48.215 29.144C45.6977 29.144 44.439 28.1413 44.439 26.136V22.936C44.439 21.8693 44.119 20.888 43.479 19.992C42.839 19.096 41.7297 18.648 40.151 18.648H29.399C27.8203 18.648 26.711 19.096 26.071 19.992C25.431 20.888 25.111 21.8693 25.111 22.936V29.464C25.111 30.5733 25.431 31.576 26.071 32.472C26.711 33.3253 27.8203 33.752 29.399 33.752H41.751ZM76.008 44.184C75.2827 44.184 74.7067 43.9067 74.28 43.352C73.896 42.7547 73.704 41.9653 73.704 40.984C73.704 38.808 74.6 37.72 76.392 37.72H83.176C84.7547 37.72 85.864 37.272 86.504 36.376C87.1867 35.48 87.528 34.4987 87.528 33.432V22.936C87.528 21.8693 87.1867 20.888 86.504 19.992C85.864 19.096 84.7547 18.648 83.176 18.648H69.736V60.44C69.736 62.488 68.456 63.512 65.896 63.512C63.4213 63.512 62.184 62.488 62.184 60.44V16.024C62.184 14.488 62.568 13.464 63.336 12.952C64.104 12.44 65.0427 12.184 66.152 12.184H84.84C85.9067 12.184 87.0373 12.4187 88.232 12.888C89.4267 13.3573 90.5787 13.9547 91.688 14.68H91.624C92.7333 15.4907 93.5867 16.5573 94.184 17.88C94.7813 19.16 95.08 20.6533 95.08 22.36V33.944C95.08 37.4 93.928 39.9813 91.624 41.688C90.5147 42.4987 89.384 43.1173 88.232 43.544C87.08 43.9707 85.9493 44.184 84.84 44.184H76.008ZM121.64 18.456L107.624 61.464V61.4C107.368 62.04 107.005 62.5733 106.536 63C106.109 63.384 105.576 63.576 104.936 63.576C104.594 63.576 104.253 63.5333 103.911 63.448C103.613 63.4053 103.293 63.3413 102.952 63.256H103.016C100.584 62.488 99.6875 61.1227 100.328 59.16L114.92 14.808C115.133 14.1253 115.496 13.5493 116.008 13.08C116.562 12.6107 117.202 12.3333 117.928 12.248C118.653 12.12 119.357 12.0347 120.04 11.992C120.722 11.9067 121.256 11.864 121.64 11.864C122.024 11.864 122.557 11.9067 123.24 11.992C123.922 12.0347 124.626 12.0987 125.352 12.184C125.949 12.2693 126.525 12.5893 127.08 13.144C127.677 13.6987 128.125 14.2533 128.424 14.808C130.813 22.1467 133.224 29.5493 135.656 37.016C138.13 44.44 140.562 51.8213 142.952 59.16C143.549 61.1227 142.653 62.488 140.264 63.256C139.922 63.3413 139.602 63.4053 139.304 63.448C139.048 63.5333 138.749 63.576 138.408 63.576C137.81 63.576 137.256 63.384 136.744 63C136.274 62.5733 135.933 62.04 135.72 61.4V61.464L121.64 18.456ZM126.44 47.64C126.44 49.0053 125.949 50.1787 124.968 51.16C124.029 52.0987 122.877 52.568 121.512 52.568C120.146 52.568 118.994 52.0987 118.056 51.16C117.117 50.1787 116.648 49.0053 116.648 47.64C116.648 46.2747 117.117 45.1227 118.056 44.184C118.994 43.2027 120.146 42.712 121.512 42.712C122.877 42.712 124.029 43.2027 124.968 44.184C125.949 45.1227 126.44 46.2747 126.44 47.64ZM171.275 56.6C172.853 56.6 173.963 56.152 174.603 55.256C175.243 54.36 175.562 53.3573 175.562 52.248V22.936C175.562 21.8693 175.243 20.888 174.603 19.992C173.963 19.096 172.853 18.648 171.275 18.648H156.299L156.235 60.376C156.235 61.3147 155.872 62.0613 155.147 62.616C154.421 63.1707 153.525 63.448 152.459 63.448C149.941 63.448 148.683 62.424 148.683 60.376V16.024C148.683 14.488 149.067 13.464 149.835 12.952C150.645 12.44 151.605 12.184 152.715 12.184H172.875C173.984 12.184 175.136 12.4187 176.331 12.888C177.525 13.3573 178.677 13.9547 179.787 14.68H179.722C180.832 15.4907 181.685 16.5573 182.283 17.88C182.88 19.16 183.179 20.6533 183.179 22.36V52.76C183.179 56.216 182.027 58.7973 179.722 60.504C178.613 61.3147 177.461 61.9547 176.267 62.424C175.115 62.8507 173.984 63.064 172.875 63.064H162.123C161.397 63.064 160.821 62.7653 160.395 62.168C160.011 61.5707 159.819 60.7813 159.819 59.8C159.819 57.6667 160.736 56.6 162.571 56.6H171.275ZM209.702 18.456L195.686 61.464V61.4C195.43 62.04 195.067 62.5733 194.598 63C194.171 63.384 193.638 63.576 192.998 63.576C192.657 63.576 192.315 63.5333 191.974 63.448C191.675 63.4053 191.355 63.3413 191.014 63.256H191.078C188.646 62.488 187.75 61.1227 188.39 59.16L202.982 14.808C203.195 14.1253 203.558 13.5493 204.07 13.08C204.625 12.6107 205.265 12.3333 205.99 12.248C206.715 12.12 207.419 12.0347 208.102 11.992C208.785 11.9067 209.318 11.864 209.702 11.864C210.086 11.864 210.619 11.9067 211.302 11.992C211.985 12.0347 212.689 12.0987 213.414 12.184C214.011 12.2693 214.587 12.5893 215.142 13.144C215.739 13.6987 216.187 14.2533 216.486 14.808C218.875 22.1467 221.286 29.5493 223.718 37.016C226.193 44.44 228.625 51.8213 231.014 59.16C231.611 61.1227 230.715 62.488 228.326 63.256C227.985 63.3413 227.665 63.4053 227.366 63.448C227.11 63.5333 226.811 63.576 226.47 63.576C225.873 63.576 225.318 63.384 224.806 63C224.337 62.5733 223.995 62.04 223.782 61.4V61.464L209.702 18.456ZM214.502 47.64C214.502 49.0053 214.011 50.1787 213.03 51.16C212.091 52.0987 210.939 52.568 209.574 52.568C208.209 52.568 207.057 52.0987 206.118 51.16C205.179 50.1787 204.71 49.0053 204.71 47.64C204.71 46.2747 205.179 45.1227 206.118 44.184C207.057 43.2027 208.209 42.712 209.574 42.712C210.939 42.712 212.091 43.2027 213.03 44.184C214.011 45.1227 214.502 46.2747 214.502 47.64ZM7.66578 88.425C7.58578 87.655 7.30578 87.1 6.82578 86.76C6.35578 86.41 5.75078 86.235 5.01078 86.235C4.71078 86.235 4.41578 86.265 4.12578 86.325C3.83578 86.385 3.57578 86.485 3.34578 86.625C3.12578 86.765 2.94578 86.955 2.80578 87.195C2.67578 87.425 2.61078 87.715 2.61078 88.065C2.61078 88.395 2.70578 88.665 2.89578 88.875C3.09578 89.075 3.35578 89.24 3.67578 89.37C4.00578 89.5 4.37578 89.61 4.78578 89.7C5.19578 89.78 5.61078 89.87 6.03078 89.97C6.46078 90.07 6.88078 90.19 7.29078 90.33C7.70078 90.46 8.06578 90.64 8.38578 90.87C8.71578 91.1 8.97578 91.39 9.16578 91.74C9.36578 92.09 9.46578 92.53 9.46578 93.06C9.46578 93.63 9.33578 94.12 9.07578 94.53C8.82578 94.93 8.50078 95.26 8.10078 95.52C7.70078 95.77 7.25078 95.95 6.75078 96.06C6.26078 96.18 5.77078 96.24 5.28078 96.24C4.68078 96.24 4.11078 96.165 3.57078 96.015C3.04078 95.865 2.57078 95.64 2.16078 95.34C1.76078 95.03 1.44078 94.64 1.20078 94.17C0.970781 93.69 0.855781 93.125 0.855781 92.475H2.20578C2.20578 92.925 2.29078 93.315 2.46078 93.645C2.64078 93.965 2.87078 94.23 3.15078 94.44C3.44078 94.65 3.77578 94.805 4.15578 94.905C4.53578 95.005 4.92578 95.055 5.32578 95.055C5.64578 95.055 5.96578 95.025 6.28578 94.965C6.61578 94.905 6.91078 94.805 7.17078 94.665C7.43078 94.515 7.64078 94.315 7.80078 94.065C7.96078 93.815 8.04078 93.495 8.04078 93.105C8.04078 92.735 7.94078 92.435 7.74078 92.205C7.55078 91.975 7.29078 91.79 6.96078 91.65C6.64078 91.5 6.27578 91.38 5.86578 91.29C5.45578 91.2 5.03578 91.11 4.60578 91.02C4.18578 90.92 3.77078 90.81 3.36078 90.69C2.95078 90.56 2.58078 90.395 2.25078 90.195C1.93078 89.985 1.67078 89.72 1.47078 89.4C1.28078 89.07 1.18578 88.66 1.18578 88.17C1.18578 87.63 1.29578 87.165 1.51578 86.775C1.73578 86.375 2.02578 86.05 2.38578 85.8C2.75578 85.54 3.17078 85.35 3.63078 85.23C4.10078 85.1 4.58078 85.035 5.07078 85.035C5.62078 85.035 6.13078 85.1 6.60078 85.23C7.07078 85.36 7.48078 85.565 7.83078 85.845C8.19078 86.125 8.47078 86.48 8.67078 86.91C8.88078 87.33 8.99578 87.835 9.01578 88.425H7.66578ZM16.3723 91.38C16.3523 91.08 16.2823 90.795 16.1623 90.525C16.0523 90.255 15.8973 90.025 15.6973 89.835C15.5073 89.635 15.2773 89.48 15.0073 89.37C14.7473 89.25 14.4573 89.19 14.1373 89.19C13.8073 89.19 13.5073 89.25 13.2373 89.37C12.9773 89.48 12.7523 89.635 12.5623 89.835C12.3723 90.035 12.2223 90.27 12.1123 90.54C12.0023 90.8 11.9373 91.08 11.9173 91.38H16.3723ZM17.6023 93.54C17.4323 94.41 17.0573 95.065 16.4773 95.505C15.8973 95.945 15.1673 96.165 14.2873 96.165C13.6673 96.165 13.1273 96.065 12.6673 95.865C12.2173 95.665 11.8373 95.385 11.5273 95.025C11.2173 94.665 10.9823 94.235 10.8223 93.735C10.6723 93.235 10.5873 92.69 10.5673 92.1C10.5673 91.51 10.6573 90.97 10.8373 90.48C11.0173 89.99 11.2673 89.565 11.5873 89.205C11.9173 88.845 12.3023 88.565 12.7423 88.365C13.1923 88.165 13.6823 88.065 14.2123 88.065C14.9023 88.065 15.4723 88.21 15.9223 88.5C16.3823 88.78 16.7473 89.14 17.0173 89.58C17.2973 90.02 17.4873 90.5 17.5873 91.02C17.6973 91.54 17.7423 92.035 17.7223 92.505H11.9173C11.9073 92.845 11.9473 93.17 12.0373 93.48C12.1273 93.78 12.2723 94.05 12.4723 94.29C12.6723 94.52 12.9273 94.705 13.2373 94.845C13.5473 94.985 13.9123 95.055 14.3323 95.055C14.8723 95.055 15.3123 94.93 15.6523 94.68C16.0023 94.43 16.2323 94.05 16.3423 93.54H17.6023ZM18.999 88.245H20.199V89.88H20.229C20.539 89.25 20.919 88.785 21.369 88.485C21.819 88.185 22.389 88.045 23.079 88.065V89.415C22.569 89.415 22.134 89.485 21.774 89.625C21.414 89.765 21.124 89.97 20.904 90.24C20.684 90.51 20.524 90.84 20.424 91.23C20.324 91.61 20.274 92.05 20.274 92.55V96H18.999V88.245ZM27.5341 96H26.1691L23.2891 88.245H24.7141L26.8891 94.71H26.9191L29.0341 88.245H30.3691L27.5341 96ZM32.8891 86.85H31.6141V85.29H32.8891V86.85ZM31.6141 88.245H32.8891V96H31.6141V88.245ZM40.1293 90.735C40.0293 90.245 39.8193 89.865 39.4993 89.595C39.1793 89.325 38.7493 89.19 38.2093 89.19C37.7493 89.19 37.3643 89.275 37.0543 89.445C36.7443 89.615 36.4943 89.84 36.3043 90.12C36.1243 90.4 35.9943 90.725 35.9143 91.095C35.8343 91.455 35.7943 91.83 35.7943 92.22C35.7943 92.58 35.8343 92.93 35.9143 93.27C36.0043 93.61 36.1393 93.915 36.3193 94.185C36.4993 94.445 36.7343 94.655 37.0243 94.815C37.3143 94.975 37.6593 95.055 38.0593 95.055C38.6893 95.055 39.1793 94.89 39.5293 94.56C39.8893 94.23 40.1093 93.765 40.1893 93.165H41.4943C41.3543 94.075 41.0143 94.79 40.4743 95.31C39.9343 95.83 39.2093 96.11 38.2993 96.15L37.8043 96.78L37.8343 96.81C37.9343 96.74 38.0993 96.705 38.3293 96.705C38.6493 96.705 38.9393 96.795 39.1993 96.975C39.4593 97.155 39.5893 97.43 39.5893 97.8C39.5893 98.05 39.5293 98.26 39.4093 98.43C39.2993 98.6 39.1543 98.735 38.9743 98.835C38.7943 98.945 38.5943 99.02 38.3743 99.06C38.1543 99.11 37.9393 99.135 37.7293 99.135C37.4893 99.135 37.2543 99.105 37.0243 99.045C36.8043 98.995 36.5793 98.93 36.3493 98.85L36.6193 98.19C36.7393 98.24 36.8793 98.285 37.0393 98.325C37.2093 98.365 37.3743 98.385 37.5343 98.385C37.6343 98.385 37.7393 98.375 37.8493 98.355C37.9593 98.345 38.0593 98.32 38.1493 98.28C38.2393 98.24 38.3143 98.19 38.3743 98.13C38.4343 98.08 38.4643 98.01 38.4643 97.92C38.4643 97.78 38.3943 97.665 38.2543 97.575C38.1243 97.495 37.9593 97.455 37.7593 97.455C37.6393 97.455 37.5343 97.465 37.4443 97.485C37.3543 97.505 37.2543 97.535 37.1443 97.575L36.8893 97.155L37.6843 96.135C37.1543 96.095 36.6843 95.97 36.2743 95.76C35.8743 95.55 35.5393 95.275 35.2693 94.935C34.9993 94.595 34.7943 94.195 34.6543 93.735C34.5143 93.275 34.4443 92.77 34.4443 92.22C34.4443 91.64 34.5193 91.1 34.6693 90.6C34.8193 90.09 35.0443 89.65 35.3443 89.28C35.6543 88.9 36.0393 88.605 36.4993 88.395C36.9593 88.175 37.4943 88.065 38.1043 88.065C38.5443 88.065 38.9543 88.12 39.3343 88.23C39.7243 88.33 40.0643 88.49 40.3543 88.71C40.6543 88.93 40.8993 89.21 41.0893 89.55C41.2793 89.88 41.3993 90.275 41.4493 90.735H40.1293ZM43.8509 92.13C43.8509 92.6 43.9109 93.02 44.0309 93.39C44.1609 93.75 44.3359 94.055 44.5559 94.305C44.7759 94.545 45.0309 94.73 45.3209 94.86C45.6209 94.99 45.9359 95.055 46.2659 95.055C46.5959 95.055 46.9059 94.99 47.1959 94.86C47.4959 94.73 47.7559 94.545 47.9759 94.305C48.1959 94.055 48.3659 93.75 48.4859 93.39C48.6159 93.02 48.6809 92.6 48.6809 92.13C48.6809 91.66 48.6159 91.245 48.4859 90.885C48.3659 90.515 48.1959 90.205 47.9759 89.955C47.7559 89.705 47.4959 89.515 47.1959 89.385C46.9059 89.255 46.5959 89.19 46.2659 89.19C45.9359 89.19 45.6209 89.255 45.3209 89.385C45.0309 89.515 44.7759 89.705 44.5559 89.955C44.3359 90.205 44.1609 90.515 44.0309 90.885C43.9109 91.245 43.8509 91.66 43.8509 92.13ZM42.5009 92.13C42.5009 91.56 42.5809 91.03 42.7409 90.54C42.9009 90.04 43.1409 89.61 43.4609 89.25C43.7809 88.88 44.1759 88.59 44.6459 88.38C45.1159 88.17 45.6559 88.065 46.2659 88.065C46.8859 88.065 47.4259 88.17 47.8859 88.38C48.3559 88.59 48.7509 88.88 49.0709 89.25C49.3909 89.61 49.6309 90.04 49.7909 90.54C49.9509 91.03 50.0309 91.56 50.0309 92.13C50.0309 92.7 49.9509 93.23 49.7909 93.72C49.6309 94.21 49.3909 94.64 49.0709 95.01C48.7509 95.37 48.3559 95.655 47.8859 95.865C47.4259 96.065 46.8859 96.165 46.2659 96.165C45.6559 96.165 45.1159 96.065 44.6459 95.865C44.1759 95.655 43.7809 95.37 43.4609 95.01C43.1409 94.64 42.9009 94.21 42.7409 93.72C42.5809 93.23 42.5009 92.7 42.5009 92.13ZM56.639 92.19C56.639 92.55 56.684 92.905 56.774 93.255C56.874 93.595 57.019 93.9 57.209 94.17C57.409 94.44 57.659 94.655 57.959 94.815C58.269 94.975 58.629 95.055 59.039 95.055C59.469 95.055 59.834 94.97 60.134 94.8C60.434 94.63 60.679 94.41 60.869 94.14C61.059 93.86 61.194 93.545 61.274 93.195C61.364 92.845 61.409 92.49 61.409 92.13C61.409 91.75 61.364 91.385 61.274 91.035C61.184 90.675 61.039 90.36 60.839 90.09C60.649 89.82 60.399 89.605 60.089 89.445C59.779 89.275 59.404 89.19 58.964 89.19C58.534 89.19 58.169 89.275 57.869 89.445C57.569 89.615 57.329 89.84 57.149 90.12C56.969 90.4 56.839 90.72 56.759 91.08C56.679 91.44 56.639 91.81 56.639 92.19ZM62.639 96H61.364V94.95H61.334C61.124 95.38 60.794 95.69 60.344 95.88C59.894 96.07 59.399 96.165 58.859 96.165C58.259 96.165 57.734 96.055 57.284 95.835C56.844 95.615 56.474 95.32 56.174 94.95C55.884 94.58 55.664 94.15 55.514 93.66C55.364 93.17 55.289 92.65 55.289 92.1C55.289 91.55 55.359 91.03 55.499 90.54C55.649 90.05 55.869 89.625 56.159 89.265C56.459 88.895 56.829 88.605 57.269 88.395C57.719 88.175 58.239 88.065 58.829 88.065C59.029 88.065 59.244 88.085 59.474 88.125C59.704 88.165 59.934 88.235 60.164 88.335C60.394 88.425 60.609 88.55 60.809 88.71C61.019 88.86 61.194 89.05 61.334 89.28H61.364V85.29H62.639V96ZM69.9856 91.38C69.9656 91.08 69.8956 90.795 69.7756 90.525C69.6656 90.255 69.5106 90.025 69.3106 89.835C69.1206 89.635 68.8906 89.48 68.6206 89.37C68.3606 89.25 68.0706 89.19 67.7506 89.19C67.4206 89.19 67.1206 89.25 66.8506 89.37C66.5906 89.48 66.3656 89.635 66.1756 89.835C65.9856 90.035 65.8356 90.27 65.7256 90.54C65.6156 90.8 65.5506 91.08 65.5306 91.38H69.9856ZM71.2156 93.54C71.0456 94.41 70.6706 95.065 70.0906 95.505C69.5106 95.945 68.7806 96.165 67.9006 96.165C67.2806 96.165 66.7406 96.065 66.2806 95.865C65.8306 95.665 65.4506 95.385 65.1406 95.025C64.8306 94.665 64.5956 94.235 64.4356 93.735C64.2856 93.235 64.2006 92.69 64.1806 92.1C64.1806 91.51 64.2706 90.97 64.4506 90.48C64.6306 89.99 64.8806 89.565 65.2006 89.205C65.5306 88.845 65.9156 88.565 66.3556 88.365C66.8056 88.165 67.2956 88.065 67.8256 88.065C68.5156 88.065 69.0856 88.21 69.5356 88.5C69.9956 88.78 70.3606 89.14 70.6306 89.58C70.9106 90.02 71.1006 90.5 71.2006 91.02C71.3106 91.54 71.3556 92.035 71.3356 92.505H65.5306C65.5206 92.845 65.5606 93.17 65.6506 93.48C65.7406 93.78 65.8856 94.05 66.0856 94.29C66.2856 94.52 66.5406 94.705 66.8506 94.845C67.1606 94.985 67.5256 95.055 67.9456 95.055C68.4856 95.055 68.9256 94.93 69.2656 94.68C69.6156 94.43 69.8456 94.05 69.9556 93.54H71.2156ZM78.4671 90.42H81.2571C82.0671 90.43 82.6571 90.265 83.0271 89.925C83.4071 89.585 83.5971 89.095 83.5971 88.455C83.5971 87.815 83.4071 87.33 83.0271 87C82.6571 86.66 82.0671 86.49 81.2571 86.49H78.4671V90.42ZM77.0421 85.29H81.7371C82.8171 85.29 83.6321 85.57 84.1821 86.13C84.7421 86.68 85.0221 87.455 85.0221 88.455C85.0221 89.455 84.7421 90.235 84.1821 90.795C83.6321 91.355 82.8171 91.63 81.7371 91.62H78.4671V96H77.0421V85.29ZM86.5136 88.245H87.7136V89.88H87.7436C88.0536 89.25 88.4336 88.785 88.8836 88.485C89.3336 88.185 89.9036 88.045 90.5936 88.065V89.415C90.0836 89.415 89.6486 89.485 89.2886 89.625C88.9286 89.765 88.6386 89.97 88.4186 90.24C88.1986 90.51 88.0386 90.84 87.9386 91.23C87.8386 91.61 87.7886 92.05 87.7886 92.55V96H86.5136V88.245ZM96.6751 91.38C96.6551 91.08 96.5851 90.795 96.4651 90.525C96.3551 90.255 96.2001 90.025 96.0001 89.835C95.8101 89.635 95.5801 89.48 95.3101 89.37C95.0501 89.25 94.7601 89.19 94.4401 89.19C94.1101 89.19 93.8101 89.25 93.5401 89.37C93.2801 89.48 93.0551 89.635 92.8651 89.835C92.6751 90.035 92.5251 90.27 92.4151 90.54C92.3051 90.8 92.2401 91.08 92.2201 91.38H96.6751ZM97.9051 93.54C97.7351 94.41 97.3601 95.065 96.7801 95.505C96.2001 95.945 95.4701 96.165 94.5901 96.165C93.9701 96.165 93.4301 96.065 92.9701 95.865C92.5201 95.665 92.1401 95.385 91.8301 95.025C91.5201 94.665 91.2851 94.235 91.1251 93.735C90.9751 93.235 90.8901 92.69 90.8701 92.1C90.8701 91.51 90.9601 90.97 91.1401 90.48C91.3201 89.99 91.5701 89.565 91.8901 89.205C92.2201 88.845 92.6051 88.565 93.0451 88.365C93.4951 88.165 93.9851 88.065 94.5151 88.065C95.2051 88.065 95.7751 88.21 96.2251 88.5C96.6851 88.78 97.0501 89.14 97.3201 89.58C97.6001 90.02 97.7901 90.5 97.8901 91.02C98.0001 91.54 98.0451 92.035 98.0251 92.505H92.2201C92.2101 92.845 92.2501 93.17 92.3401 93.48C92.4301 93.78 92.5751 94.05 92.7751 94.29C92.9751 94.52 93.2301 94.705 93.5401 94.845C93.8501 94.985 94.2151 95.055 94.6351 95.055C95.1751 95.055 95.6151 94.93 95.9551 94.68C96.3051 94.43 96.5351 94.05 96.6451 93.54H97.9051ZM102.842 96H101.477L98.5967 88.245H100.022L102.197 94.71H102.227L104.342 88.245H105.677L102.842 96ZM112.232 91.38C112.212 91.08 112.142 90.795 112.022 90.525C111.912 90.255 111.757 90.025 111.557 89.835C111.367 89.635 111.137 89.48 110.867 89.37C110.607 89.25 110.317 89.19 109.997 89.19C109.667 89.19 109.367 89.25 109.097 89.37C108.837 89.48 108.612 89.635 108.422 89.835C108.232 90.035 108.082 90.27 107.972 90.54C107.862 90.8 107.797 91.08 107.777 91.38H112.232ZM113.462 93.54C113.292 94.41 112.917 95.065 112.337 95.505C111.757 95.945 111.027 96.165 110.147 96.165C109.527 96.165 108.987 96.065 108.527 95.865C108.077 95.665 107.697 95.385 107.387 95.025C107.077 94.665 106.842 94.235 106.682 93.735C106.532 93.235 106.447 92.69 106.427 92.1C106.427 91.51 106.517 90.97 106.697 90.48C106.877 89.99 107.127 89.565 107.447 89.205C107.777 88.845 108.162 88.565 108.602 88.365C109.052 88.165 109.542 88.065 110.072 88.065C110.762 88.065 111.332 88.21 111.782 88.5C112.242 88.78 112.607 89.14 112.877 89.58C113.157 90.02 113.347 90.5 113.447 91.02C113.557 91.54 113.602 92.035 113.582 92.505H107.777C107.767 92.845 107.807 93.17 107.897 93.48C107.987 93.78 108.132 94.05 108.332 94.29C108.532 94.52 108.787 94.705 109.097 94.845C109.407 94.985 109.772 95.055 110.192 95.055C110.732 95.055 111.172 94.93 111.512 94.68C111.862 94.43 112.092 94.05 112.202 93.54H113.462ZM114.903 88.245H116.103V89.475H116.133C116.663 88.535 117.503 88.065 118.653 88.065C119.163 88.065 119.588 88.135 119.928 88.275C120.268 88.415 120.543 88.61 120.753 88.86C120.963 89.11 121.108 89.41 121.188 89.76C121.278 90.1 121.323 90.48 121.323 90.9V96H120.048V90.75C120.048 90.27 119.908 89.89 119.628 89.61C119.348 89.33 118.963 89.19 118.473 89.19C118.083 89.19 117.743 89.25 117.453 89.37C117.173 89.49 116.938 89.66 116.748 89.88C116.558 90.1 116.413 90.36 116.313 90.66C116.223 90.95 116.178 91.27 116.178 91.62V96H114.903V88.245ZM128.503 90.735C128.403 90.245 128.193 89.865 127.873 89.595C127.553 89.325 127.123 89.19 126.583 89.19C126.123 89.19 125.738 89.275 125.428 89.445C125.118 89.615 124.868 89.84 124.678 90.12C124.498 90.4 124.368 90.725 124.288 91.095C124.208 91.455 124.168 91.83 124.168 92.22C124.168 92.58 124.208 92.93 124.288 93.27C124.378 93.61 124.513 93.915 124.693 94.185C124.873 94.445 125.108 94.655 125.398 94.815C125.688 94.975 126.033 95.055 126.433 95.055C127.063 95.055 127.553 94.89 127.903 94.56C128.263 94.23 128.483 93.765 128.563 93.165H129.868C129.728 94.075 129.388 94.79 128.848 95.31C128.308 95.83 127.583 96.11 126.673 96.15L126.178 96.78L126.208 96.81C126.308 96.74 126.473 96.705 126.703 96.705C127.023 96.705 127.313 96.795 127.573 96.975C127.833 97.155 127.963 97.43 127.963 97.8C127.963 98.05 127.903 98.26 127.783 98.43C127.673 98.6 127.528 98.735 127.348 98.835C127.168 98.945 126.968 99.02 126.748 99.06C126.528 99.11 126.313 99.135 126.103 99.135C125.863 99.135 125.628 99.105 125.398 99.045C125.178 98.995 124.953 98.93 124.723 98.85L124.993 98.19C125.113 98.24 125.253 98.285 125.413 98.325C125.583 98.365 125.748 98.385 125.908 98.385C126.008 98.385 126.113 98.375 126.223 98.355C126.333 98.345 126.433 98.32 126.523 98.28C126.613 98.24 126.688 98.19 126.748 98.13C126.808 98.08 126.838 98.01 126.838 97.92C126.838 97.78 126.768 97.665 126.628 97.575C126.498 97.495 126.333 97.455 126.133 97.455C126.013 97.455 125.908 97.465 125.818 97.485C125.728 97.505 125.628 97.535 125.518 97.575L125.263 97.155L126.058 96.135C125.528 96.095 125.058 95.97 124.648 95.76C124.248 95.55 123.913 95.275 123.643 94.935C123.373 94.595 123.168 94.195 123.028 93.735C122.888 93.275 122.818 92.77 122.818 92.22C122.818 91.64 122.893 91.1 123.043 90.6C123.193 90.09 123.418 89.65 123.718 89.28C124.028 88.9 124.413 88.605 124.873 88.395C125.333 88.175 125.868 88.065 126.478 88.065C126.918 88.065 127.328 88.12 127.708 88.23C128.098 88.33 128.438 88.49 128.728 88.71C129.028 88.93 129.273 89.21 129.463 89.55C129.653 89.88 129.773 90.275 129.823 90.735H128.503ZM138.165 95.97C137.945 96.1 137.64 96.165 137.25 96.165C136.92 96.165 136.655 96.075 136.455 95.895C136.265 95.705 136.17 95.4 136.17 94.98C135.82 95.4 135.41 95.705 134.94 95.895C134.48 96.075 133.98 96.165 133.44 96.165C133.09 96.165 132.755 96.125 132.435 96.045C132.125 95.965 131.855 95.84 131.625 95.67C131.395 95.5 131.21 95.28 131.07 95.01C130.94 94.73 130.875 94.395 130.875 94.005C130.875 93.565 130.95 93.205 131.1 92.925C131.25 92.645 131.445 92.42 131.685 92.25C131.935 92.07 132.215 91.935 132.525 91.845C132.845 91.755 133.17 91.68 133.5 91.62C133.85 91.55 134.18 91.5 134.49 91.47C134.81 91.43 135.09 91.38 135.33 91.32C135.57 91.25 135.76 91.155 135.9 91.035C136.04 90.905 136.11 90.72 136.11 90.48C136.11 90.2 136.055 89.975 135.945 89.805C135.845 89.635 135.71 89.505 135.54 89.415C135.38 89.325 135.195 89.265 134.985 89.235C134.785 89.205 134.585 89.19 134.385 89.19C133.845 89.19 133.395 89.295 133.035 89.505C132.675 89.705 132.48 90.09 132.45 90.66H131.175C131.195 90.18 131.295 89.775 131.475 89.445C131.655 89.115 131.895 88.85 132.195 88.65C132.495 88.44 132.835 88.29 133.215 88.2C133.605 88.11 134.02 88.065 134.46 88.065C134.81 88.065 135.155 88.09 135.495 88.14C135.845 88.19 136.16 88.295 136.44 88.455C136.72 88.605 136.945 88.82 137.115 89.1C137.285 89.38 137.37 89.745 137.37 90.195V94.185C137.37 94.485 137.385 94.705 137.415 94.845C137.455 94.985 137.575 95.055 137.775 95.055C137.885 95.055 138.015 95.03 138.165 94.98V95.97ZM136.095 91.995C135.935 92.115 135.725 92.205 135.465 92.265C135.205 92.315 134.93 92.36 134.64 92.4C134.36 92.43 134.075 92.47 133.785 92.52C133.495 92.56 133.235 92.63 133.005 92.73C132.775 92.83 132.585 92.975 132.435 93.165C132.295 93.345 132.225 93.595 132.225 93.915C132.225 94.125 132.265 94.305 132.345 94.455C132.435 94.595 132.545 94.71 132.675 94.8C132.815 94.89 132.975 94.955 133.155 94.995C133.335 95.035 133.525 95.055 133.725 95.055C134.145 95.055 134.505 95 134.805 94.89C135.105 94.77 135.35 94.625 135.54 94.455C135.73 94.275 135.87 94.085 135.96 93.885C136.05 93.675 136.095 93.48 136.095 93.3V91.995ZM135.57 85.755C135.79 85.755 135.96 85.685 136.08 85.545C136.21 85.395 136.29 85.19 136.32 84.93H137.055C136.955 85.63 136.765 86.11 136.485 86.37C136.215 86.62 135.885 86.745 135.495 86.745C135.295 86.745 135.105 86.705 134.925 86.625C134.745 86.545 134.565 86.455 134.385 86.355C134.205 86.255 134.025 86.165 133.845 86.085C133.675 86.005 133.5 85.965 133.32 85.965C132.86 85.965 132.585 86.22 132.495 86.73H131.79C131.89 86.12 132.065 85.675 132.315 85.395C132.575 85.115 132.915 84.975 133.335 84.975C133.535 84.975 133.73 85.015 133.92 85.095C134.11 85.175 134.295 85.265 134.475 85.365C134.655 85.465 134.835 85.555 135.015 85.635C135.205 85.715 135.39 85.755 135.57 85.755ZM140.282 92.13C140.282 92.6 140.342 93.02 140.462 93.39C140.592 93.75 140.767 94.055 140.987 94.305C141.207 94.545 141.462 94.73 141.752 94.86C142.052 94.99 142.367 95.055 142.697 95.055C143.027 95.055 143.337 94.99 143.627 94.86C143.927 94.73 144.187 94.545 144.407 94.305C144.627 94.055 144.797 93.75 144.917 93.39C145.047 93.02 145.112 92.6 145.112 92.13C145.112 91.66 145.047 91.245 144.917 90.885C144.797 90.515 144.627 90.205 144.407 89.955C144.187 89.705 143.927 89.515 143.627 89.385C143.337 89.255 143.027 89.19 142.697 89.19C142.367 89.19 142.052 89.255 141.752 89.385C141.462 89.515 141.207 89.705 140.987 89.955C140.767 90.205 140.592 90.515 140.462 90.885C140.342 91.245 140.282 91.66 140.282 92.13ZM138.932 92.13C138.932 91.56 139.012 91.03 139.172 90.54C139.332 90.04 139.572 89.61 139.892 89.25C140.212 88.88 140.607 88.59 141.077 88.38C141.547 88.17 142.087 88.065 142.697 88.065C143.317 88.065 143.857 88.17 144.317 88.38C144.787 88.59 145.182 88.88 145.502 89.25C145.822 89.61 146.062 90.04 146.222 90.54C146.382 91.03 146.462 91.56 146.462 92.13C146.462 92.7 146.382 93.23 146.222 93.72C146.062 94.21 145.822 94.64 145.502 95.01C145.182 95.37 144.787 95.655 144.317 95.865C143.857 96.065 143.317 96.165 142.697 96.165C142.087 96.165 141.547 96.065 141.077 95.865C140.607 95.655 140.212 95.37 139.892 95.01C139.572 94.64 139.332 94.21 139.172 93.72C139.012 93.23 138.932 92.7 138.932 92.13ZM157.525 91.38C157.505 91.08 157.435 90.795 157.315 90.525C157.205 90.255 157.05 90.025 156.85 89.835C156.66 89.635 156.43 89.48 156.16 89.37C155.9 89.25 155.61 89.19 155.29 89.19C154.96 89.19 154.66 89.25 154.39 89.37C154.13 89.48 153.905 89.635 153.715 89.835C153.525 90.035 153.375 90.27 153.265 90.54C153.155 90.8 153.09 91.08 153.07 91.38H157.525ZM158.755 93.54C158.585 94.41 158.21 95.065 157.63 95.505C157.05 95.945 156.32 96.165 155.44 96.165C154.82 96.165 154.28 96.065 153.82 95.865C153.37 95.665 152.99 95.385 152.68 95.025C152.37 94.665 152.135 94.235 151.975 93.735C151.825 93.235 151.74 92.69 151.72 92.1C151.72 91.51 151.81 90.97 151.99 90.48C152.17 89.99 152.42 89.565 152.74 89.205C153.07 88.845 153.455 88.565 153.895 88.365C154.345 88.165 154.835 88.065 155.365 88.065C156.055 88.065 156.625 88.21 157.075 88.5C157.535 88.78 157.9 89.14 158.17 89.58C158.45 90.02 158.64 90.5 158.74 91.02C158.85 91.54 158.895 92.035 158.875 92.505H153.07C153.06 92.845 153.1 93.17 153.19 93.48C153.28 93.78 153.425 94.05 153.625 94.29C153.825 94.52 154.08 94.705 154.39 94.845C154.7 94.985 155.065 95.055 155.485 95.055C156.025 95.055 156.465 94.93 156.805 94.68C157.155 94.43 157.385 94.05 157.495 93.54H158.755ZM166.426 91.575H170.056L168.271 86.58H168.241L166.426 91.575ZM167.491 85.29H169.066L173.251 96H171.676L170.506 92.775H165.976L164.776 96H163.321L167.491 85.29ZM174.878 93.555C174.888 93.835 174.953 94.075 175.073 94.275C175.193 94.465 175.348 94.62 175.538 94.74C175.738 94.85 175.958 94.93 176.198 94.98C176.448 95.03 176.703 95.055 176.963 95.055C177.163 95.055 177.373 95.04 177.593 95.01C177.813 94.98 178.013 94.925 178.193 94.845C178.383 94.765 178.538 94.65 178.658 94.5C178.778 94.34 178.838 94.14 178.838 93.9C178.838 93.57 178.713 93.32 178.463 93.15C178.213 92.98 177.898 92.845 177.518 92.745C177.148 92.635 176.743 92.54 176.303 92.46C175.863 92.37 175.453 92.25 175.073 92.1C174.703 91.94 174.393 91.72 174.143 91.44C173.893 91.16 173.768 90.77 173.768 90.27C173.768 89.88 173.853 89.545 174.023 89.265C174.203 88.985 174.428 88.76 174.698 88.59C174.978 88.41 175.288 88.28 175.628 88.2C175.978 88.11 176.323 88.065 176.663 88.065C177.103 88.065 177.508 88.105 177.878 88.185C178.248 88.255 178.573 88.385 178.853 88.575C179.143 88.755 179.373 89.005 179.543 89.325C179.713 89.635 179.813 90.025 179.843 90.495H178.568C178.548 90.245 178.483 90.04 178.373 89.88C178.263 89.71 178.123 89.575 177.953 89.475C177.783 89.375 177.593 89.305 177.383 89.265C177.183 89.215 176.978 89.19 176.768 89.19C176.578 89.19 176.383 89.205 176.183 89.235C175.993 89.265 175.818 89.32 175.658 89.4C175.498 89.47 175.368 89.57 175.268 89.7C175.168 89.82 175.118 89.98 175.118 90.18C175.118 90.4 175.193 90.585 175.343 90.735C175.503 90.875 175.703 90.995 175.943 91.095C176.183 91.185 176.453 91.265 176.753 91.335C177.053 91.395 177.353 91.46 177.653 91.53C177.973 91.6 178.283 91.685 178.583 91.785C178.893 91.885 179.163 92.02 179.393 92.19C179.633 92.35 179.823 92.555 179.963 92.805C180.113 93.055 180.188 93.365 180.188 93.735C180.188 94.205 180.088 94.595 179.888 94.905C179.698 95.215 179.443 95.465 179.123 95.655C178.813 95.845 178.458 95.975 178.058 96.045C177.668 96.125 177.278 96.165 176.888 96.165C176.458 96.165 176.048 96.12 175.658 96.03C175.268 95.94 174.923 95.795 174.623 95.595C174.323 95.385 174.083 95.115 173.903 94.785C173.723 94.445 173.623 94.035 173.603 93.555H174.878ZM182.378 93.555C182.388 93.835 182.453 94.075 182.573 94.275C182.693 94.465 182.848 94.62 183.038 94.74C183.238 94.85 183.458 94.93 183.698 94.98C183.948 95.03 184.203 95.055 184.463 95.055C184.663 95.055 184.873 95.04 185.093 95.01C185.313 94.98 185.513 94.925 185.693 94.845C185.883 94.765 186.038 94.65 186.158 94.5C186.278 94.34 186.338 94.14 186.338 93.9C186.338 93.57 186.213 93.32 185.963 93.15C185.713 92.98 185.398 92.845 185.018 92.745C184.648 92.635 184.243 92.54 183.803 92.46C183.363 92.37 182.953 92.25 182.573 92.1C182.203 91.94 181.893 91.72 181.643 91.44C181.393 91.16 181.268 90.77 181.268 90.27C181.268 89.88 181.353 89.545 181.523 89.265C181.703 88.985 181.928 88.76 182.198 88.59C182.478 88.41 182.788 88.28 183.128 88.2C183.478 88.11 183.823 88.065 184.163 88.065C184.603 88.065 185.008 88.105 185.378 88.185C185.748 88.255 186.073 88.385 186.353 88.575C186.643 88.755 186.873 89.005 187.043 89.325C187.213 89.635 187.313 90.025 187.343 90.495H186.068C186.048 90.245 185.983 90.04 185.873 89.88C185.763 89.71 185.623 89.575 185.453 89.475C185.283 89.375 185.093 89.305 184.883 89.265C184.683 89.215 184.478 89.19 184.268 89.19C184.078 89.19 183.883 89.205 183.683 89.235C183.493 89.265 183.318 89.32 183.158 89.4C182.998 89.47 182.868 89.57 182.768 89.7C182.668 89.82 182.618 89.98 182.618 90.18C182.618 90.4 182.693 90.585 182.843 90.735C183.003 90.875 183.203 90.995 183.443 91.095C183.683 91.185 183.953 91.265 184.253 91.335C184.553 91.395 184.853 91.46 185.153 91.53C185.473 91.6 185.783 91.685 186.083 91.785C186.393 91.885 186.663 92.02 186.893 92.19C187.133 92.35 187.323 92.555 187.463 92.805C187.613 93.055 187.688 93.365 187.688 93.735C187.688 94.205 187.588 94.595 187.388 94.905C187.198 95.215 186.943 95.465 186.623 95.655C186.313 95.845 185.958 95.975 185.558 96.045C185.168 96.125 184.778 96.165 184.388 96.165C183.958 96.165 183.548 96.12 183.158 96.03C182.768 95.94 182.423 95.795 182.123 95.595C181.823 95.385 181.583 95.115 181.403 94.785C181.223 94.445 181.123 94.035 181.103 93.555H182.378ZM190.448 86.85H189.173V85.29H190.448V86.85ZM189.173 88.245H190.448V96H189.173V88.245ZM193.203 93.555C193.213 93.835 193.278 94.075 193.398 94.275C193.518 94.465 193.673 94.62 193.863 94.74C194.063 94.85 194.283 94.93 194.523 94.98C194.773 95.03 195.028 95.055 195.288 95.055C195.488 95.055 195.698 95.04 195.918 95.01C196.138 94.98 196.338 94.925 196.518 94.845C196.708 94.765 196.863 94.65 196.983 94.5C197.103 94.34 197.163 94.14 197.163 93.9C197.163 93.57 197.038 93.32 196.788 93.15C196.538 92.98 196.223 92.845 195.843 92.745C195.473 92.635 195.068 92.54 194.628 92.46C194.188 92.37 193.778 92.25 193.398 92.1C193.028 91.94 192.718 91.72 192.468 91.44C192.218 91.16 192.093 90.77 192.093 90.27C192.093 89.88 192.178 89.545 192.348 89.265C192.528 88.985 192.753 88.76 193.023 88.59C193.303 88.41 193.613 88.28 193.953 88.2C194.303 88.11 194.648 88.065 194.988 88.065C195.428 88.065 195.833 88.105 196.203 88.185C196.573 88.255 196.898 88.385 197.178 88.575C197.468 88.755 197.698 89.005 197.868 89.325C198.038 89.635 198.138 90.025 198.168 90.495H196.893C196.873 90.245 196.808 90.04 196.698 89.88C196.588 89.71 196.448 89.575 196.278 89.475C196.108 89.375 195.918 89.305 195.708 89.265C195.508 89.215 195.303 89.19 195.093 89.19C194.903 89.19 194.708 89.205 194.508 89.235C194.318 89.265 194.143 89.32 193.983 89.4C193.823 89.47 193.693 89.57 193.593 89.7C193.493 89.82 193.443 89.98 193.443 90.18C193.443 90.4 193.518 90.585 193.668 90.735C193.828 90.875 194.028 90.995 194.268 91.095C194.508 91.185 194.778 91.265 195.078 91.335C195.378 91.395 195.678 91.46 195.978 91.53C196.298 91.6 196.608 91.685 196.908 91.785C197.218 91.885 197.488 92.02 197.718 92.19C197.958 92.35 198.148 92.555 198.288 92.805C198.438 93.055 198.513 93.365 198.513 93.735C198.513 94.205 198.413 94.595 198.213 94.905C198.023 95.215 197.768 95.465 197.448 95.655C197.138 95.845 196.783 95.975 196.383 96.045C195.993 96.125 195.603 96.165 195.213 96.165C194.783 96.165 194.373 96.12 193.983 96.03C193.593 95.94 193.248 95.795 192.948 95.595C192.648 95.385 192.408 95.115 192.228 94.785C192.048 94.445 191.948 94.035 191.928 93.555H193.203ZM201.693 88.245H203.238V89.37H201.693V94.185C201.693 94.335 201.703 94.455 201.723 94.545C201.753 94.635 201.803 94.705 201.873 94.755C201.943 94.805 202.038 94.84 202.158 94.86C202.288 94.87 202.453 94.875 202.653 94.875H203.238V96H202.263C201.933 96 201.648 95.98 201.408 95.94C201.178 95.89 200.988 95.805 200.838 95.685C200.698 95.565 200.593 95.395 200.523 95.175C200.453 94.955 200.418 94.665 200.418 94.305V89.37H199.098V88.245H200.418V85.92H201.693V88.245ZM210.039 91.38C210.019 91.08 209.949 90.795 209.829 90.525C209.719 90.255 209.564 90.025 209.364 89.835C209.174 89.635 208.944 89.48 208.674 89.37C208.414 89.25 208.124 89.19 207.804 89.19C207.474 89.19 207.174 89.25 206.904 89.37C206.644 89.48 206.419 89.635 206.229 89.835C206.039 90.035 205.889 90.27 205.779 90.54C205.669 90.8 205.604 91.08 205.584 91.38H210.039ZM211.269 93.54C211.099 94.41 210.724 95.065 210.144 95.505C209.564 95.945 208.834 96.165 207.954 96.165C207.334 96.165 206.794 96.065 206.334 95.865C205.884 95.665 205.504 95.385 205.194 95.025C204.884 94.665 204.649 94.235 204.489 93.735C204.339 93.235 204.254 92.69 204.234 92.1C204.234 91.51 204.324 90.97 204.504 90.48C204.684 89.99 204.934 89.565 205.254 89.205C205.584 88.845 205.969 88.565 206.409 88.365C206.859 88.165 207.349 88.065 207.879 88.065C208.569 88.065 209.139 88.21 209.589 88.5C210.049 88.78 210.414 89.14 210.684 89.58C210.964 90.02 211.154 90.5 211.254 91.02C211.364 91.54 211.409 92.035 211.389 92.505H205.584C205.574 92.845 205.614 93.17 205.704 93.48C205.794 93.78 205.939 94.05 206.139 94.29C206.339 94.52 206.594 94.705 206.904 94.845C207.214 94.985 207.579 95.055 207.999 95.055C208.539 95.055 208.979 94.93 209.319 94.68C209.669 94.43 209.899 94.05 210.009 93.54H211.269ZM208.419 84.735H207.024L205.494 86.88H206.634L207.684 85.44L208.719 86.88H209.979L208.419 84.735ZM212.711 88.245H213.911V89.475H213.941C214.471 88.535 215.311 88.065 216.461 88.065C216.971 88.065 217.396 88.135 217.736 88.275C218.076 88.415 218.351 88.61 218.561 88.86C218.771 89.11 218.916 89.41 218.996 89.76C219.086 90.1 219.131 90.48 219.131 90.9V96H217.856V90.75C217.856 90.27 217.716 89.89 217.436 89.61C217.156 89.33 216.771 89.19 216.281 89.19C215.891 89.19 215.551 89.25 215.261 89.37C214.981 89.49 214.746 89.66 214.556 89.88C214.366 90.1 214.221 90.36 214.121 90.66C214.031 90.95 213.986 91.27 213.986 91.62V96H212.711V88.245ZM226.311 90.735C226.211 90.245 226.001 89.865 225.681 89.595C225.361 89.325 224.931 89.19 224.391 89.19C223.931 89.19 223.546 89.275 223.236 89.445C222.926 89.615 222.676 89.84 222.486 90.12C222.306 90.4 222.176 90.725 222.096 91.095C222.016 91.455 221.976 91.83 221.976 92.22C221.976 92.58 222.016 92.93 222.096 93.27C222.186 93.61 222.321 93.915 222.501 94.185C222.681 94.445 222.916 94.655 223.206 94.815C223.496 94.975 223.841 95.055 224.241 95.055C224.871 95.055 225.361 94.89 225.711 94.56C226.071 94.23 226.291 93.765 226.371 93.165H227.676C227.536 94.125 227.176 94.865 226.596 95.385C226.026 95.905 225.246 96.165 224.256 96.165C223.666 96.165 223.141 96.07 222.681 95.88C222.231 95.69 221.851 95.42 221.541 95.07C221.241 94.72 221.011 94.305 220.851 93.825C220.701 93.335 220.626 92.8 220.626 92.22C220.626 91.64 220.701 91.1 220.851 90.6C221.001 90.09 221.226 89.65 221.526 89.28C221.836 88.9 222.221 88.605 222.681 88.395C223.141 88.175 223.676 88.065 224.286 88.065C224.726 88.065 225.136 88.12 225.516 88.23C225.906 88.33 226.246 88.49 226.536 88.71C226.836 88.93 227.081 89.21 227.271 89.55C227.461 89.88 227.581 90.275 227.631 90.735H226.311ZM230.453 86.85H229.178V85.29H230.453V86.85ZM229.178 88.245H230.453V96H229.178V88.245ZM239.298 95.97C239.078 96.1 238.773 96.165 238.383 96.165C238.053 96.165 237.788 96.075 237.588 95.895C237.398 95.705 237.303 95.4 237.303 94.98C236.953 95.4 236.543 95.705 236.073 95.895C235.613 96.075 235.113 96.165 234.573 96.165C234.223 96.165 233.888 96.125 233.568 96.045C233.258 95.965 232.988 95.84 232.758 95.67C232.528 95.5 232.343 95.28 232.203 95.01C232.073 94.73 232.008 94.395 232.008 94.005C232.008 93.565 232.083 93.205 232.233 92.925C232.383 92.645 232.578 92.42 232.818 92.25C233.068 92.07 233.348 91.935 233.658 91.845C233.978 91.755 234.303 91.68 234.633 91.62C234.983 91.55 235.313 91.5 235.623 91.47C235.943 91.43 236.223 91.38 236.463 91.32C236.703 91.25 236.893 91.155 237.033 91.035C237.173 90.905 237.243 90.72 237.243 90.48C237.243 90.2 237.188 89.975 237.078 89.805C236.978 89.635 236.843 89.505 236.673 89.415C236.513 89.325 236.328 89.265 236.118 89.235C235.918 89.205 235.718 89.19 235.518 89.19C234.978 89.19 234.528 89.295 234.168 89.505C233.808 89.705 233.613 90.09 233.583 90.66H232.308C232.328 90.18 232.428 89.775 232.608 89.445C232.788 89.115 233.028 88.85 233.328 88.65C233.628 88.44 233.968 88.29 234.348 88.2C234.738 88.11 235.153 88.065 235.593 88.065C235.943 88.065 236.288 88.09 236.628 88.14C236.978 88.19 237.293 88.295 237.573 88.455C237.853 88.605 238.078 88.82 238.248 89.1C238.418 89.38 238.503 89.745 238.503 90.195V94.185C238.503 94.485 238.518 94.705 238.548 94.845C238.588 94.985 238.708 95.055 238.908 95.055C239.018 95.055 239.148 95.03 239.298 94.98V95.97ZM237.228 91.995C237.068 92.115 236.858 92.205 236.598 92.265C236.338 92.315 236.063 92.36 235.773 92.4C235.493 92.43 235.208 92.47 234.918 92.52C234.628 92.56 234.368 92.63 234.138 92.73C233.908 92.83 233.718 92.975 233.568 93.165C233.428 93.345 233.358 93.595 233.358 93.915C233.358 94.125 233.398 94.305 233.478 94.455C233.568 94.595 233.678 94.71 233.808 94.8C233.948 94.89 234.108 94.955 234.288 94.995C234.468 95.035 234.658 95.055 234.858 95.055C235.278 95.055 235.638 95 235.938 94.89C236.238 94.77 236.483 94.625 236.673 94.455C236.863 94.275 237.003 94.085 237.093 93.885C237.183 93.675 237.228 93.48 237.228 93.3V91.995ZM39.8446 110.19C39.8446 110.55 39.8896 110.905 39.9796 111.255C40.0796 111.595 40.2246 111.9 40.4146 112.17C40.6146 112.44 40.8646 112.655 41.1646 112.815C41.4746 112.975 41.8346 113.055 42.2446 113.055C42.6746 113.055 43.0396 112.97 43.3396 112.8C43.6396 112.63 43.8846 112.41 44.0746 112.14C44.2646 111.86 44.3996 111.545 44.4796 111.195C44.5696 110.845 44.6146 110.49 44.6146 110.13C44.6146 109.75 44.5696 109.385 44.4796 109.035C44.3896 108.675 44.2446 108.36 44.0446 108.09C43.8546 107.82 43.6046 107.605 43.2946 107.445C42.9846 107.275 42.6096 107.19 42.1696 107.19C41.7396 107.19 41.3746 107.275 41.0746 107.445C40.7746 107.615 40.5346 107.84 40.3546 108.12C40.1746 108.4 40.0446 108.72 39.9646 109.08C39.8846 109.44 39.8446 109.81 39.8446 110.19ZM45.8446 114H44.5696V112.95H44.5396C44.3296 113.38 43.9996 113.69 43.5496 113.88C43.0996 114.07 42.6046 114.165 42.0646 114.165C41.4646 114.165 40.9396 114.055 40.4896 113.835C40.0496 113.615 39.6796 113.32 39.3796 112.95C39.0896 112.58 38.8696 112.15 38.7196 111.66C38.5696 111.17 38.4946 110.65 38.4946 110.1C38.4946 109.55 38.5646 109.03 38.7046 108.54C38.8546 108.05 39.0746 107.625 39.3646 107.265C39.6646 106.895 40.0346 106.605 40.4746 106.395C40.9246 106.175 41.4446 106.065 42.0346 106.065C42.2346 106.065 42.4496 106.085 42.6796 106.125C42.9096 106.165 43.1396 106.235 43.3696 106.335C43.5996 106.425 43.8146 106.55 44.0146 106.71C44.2246 106.86 44.3996 107.05 44.5396 107.28H44.5696V103.29H45.8446V114ZM53.1912 109.38C53.1712 109.08 53.1012 108.795 52.9812 108.525C52.8712 108.255 52.7162 108.025 52.5162 107.835C52.3262 107.635 52.0962 107.48 51.8262 107.37C51.5662 107.25 51.2762 107.19 50.9562 107.19C50.6262 107.19 50.3262 107.25 50.0562 107.37C49.7962 107.48 49.5712 107.635 49.3812 107.835C49.1912 108.035 49.0412 108.27 48.9312 108.54C48.8212 108.8 48.7562 109.08 48.7362 109.38H53.1912ZM54.4212 111.54C54.2512 112.41 53.8762 113.065 53.2962 113.505C52.7162 113.945 51.9862 114.165 51.1062 114.165C50.4862 114.165 49.9462 114.065 49.4862 113.865C49.0362 113.665 48.6562 113.385 48.3462 113.025C48.0362 112.665 47.8012 112.235 47.6412 111.735C47.4912 111.235 47.4062 110.69 47.3862 110.1C47.3862 109.51 47.4762 108.97 47.6562 108.48C47.8362 107.99 48.0862 107.565 48.4062 107.205C48.7362 106.845 49.1212 106.565 49.5612 106.365C50.0112 106.165 50.5012 106.065 51.0312 106.065C51.7212 106.065 52.2912 106.21 52.7412 106.5C53.2012 106.78 53.5662 107.14 53.8362 107.58C54.1162 108.02 54.3062 108.5 54.4062 109.02C54.5162 109.54 54.5612 110.035 54.5412 110.505H48.7362C48.7262 110.845 48.7662 111.17 48.8562 111.48C48.9462 111.78 49.0912 112.05 49.2912 112.29C49.4912 112.52 49.7462 112.705 50.0562 112.845C50.3662 112.985 50.7312 113.055 51.1512 113.055C51.6912 113.055 52.1312 112.93 52.4712 112.68C52.8212 112.43 53.0512 112.05 53.1612 111.54H54.4212ZM61.6726 112.8H64.0426C64.2026 112.8 64.4026 112.79 64.6426 112.77C64.8826 112.74 65.1376 112.68 65.4076 112.59C65.6776 112.49 65.9426 112.35 66.2026 112.17C66.4726 111.99 66.7126 111.745 66.9226 111.435C67.1326 111.125 67.3026 110.74 67.4326 110.28C67.5726 109.81 67.6426 109.245 67.6426 108.585C67.6426 107.945 67.5776 107.375 67.4476 106.875C67.3276 106.365 67.1226 105.935 66.8326 105.585C66.5526 105.225 66.1876 104.955 65.7376 104.775C65.2876 104.585 64.7326 104.49 64.0726 104.49H61.6726V112.8ZM60.2476 103.29H63.9226C65.5726 103.29 66.8426 103.71 67.7326 104.55C68.6226 105.39 69.0676 106.67 69.0676 108.39C69.0676 109.29 68.9676 110.09 68.7676 110.79C68.5676 111.48 68.2576 112.065 67.8376 112.545C67.4176 113.015 66.8826 113.375 66.2326 113.625C65.5826 113.875 64.8126 114 63.9226 114H60.2476V103.29ZM71.5292 110.13C71.5292 110.6 71.5892 111.02 71.7092 111.39C71.8392 111.75 72.0142 112.055 72.2342 112.305C72.4542 112.545 72.7092 112.73 72.9992 112.86C73.2992 112.99 73.6142 113.055 73.9442 113.055C74.2742 113.055 74.5842 112.99 74.8742 112.86C75.1742 112.73 75.4342 112.545 75.6542 112.305C75.8742 112.055 76.0442 111.75 76.1642 111.39C76.2942 111.02 76.3592 110.6 76.3592 110.13C76.3592 109.66 76.2942 109.245 76.1642 108.885C76.0442 108.515 75.8742 108.205 75.6542 107.955C75.4342 107.705 75.1742 107.515 74.8742 107.385C74.5842 107.255 74.2742 107.19 73.9442 107.19C73.6142 107.19 73.2992 107.255 72.9992 107.385C72.7092 107.515 72.4542 107.705 72.2342 107.955C72.0142 108.205 71.8392 108.515 71.7092 108.885C71.5892 109.245 71.5292 109.66 71.5292 110.13ZM70.1792 110.13C70.1792 109.56 70.2592 109.03 70.4192 108.54C70.5792 108.04 70.8192 107.61 71.1392 107.25C71.4592 106.88 71.8542 106.59 72.3242 106.38C72.7942 106.17 73.3342 106.065 73.9442 106.065C74.5642 106.065 75.1042 106.17 75.5642 106.38C76.0342 106.59 76.4292 106.88 76.7492 107.25C77.0692 107.61 77.3092 108.04 77.4692 108.54C77.6292 109.03 77.7092 109.56 77.7092 110.13C77.7092 110.7 77.6292 111.23 77.4692 111.72C77.3092 112.21 77.0692 112.64 76.7492 113.01C76.4292 113.37 76.0342 113.655 75.5642 113.865C75.1042 114.065 74.5642 114.165 73.9442 114.165C73.3342 114.165 72.7942 114.065 72.3242 113.865C71.8542 113.655 71.4592 113.37 71.1392 113.01C70.8192 112.64 70.5792 112.21 70.4192 111.72C70.2592 111.23 70.1792 110.7 70.1792 110.13ZM84.5974 109.38C84.5774 109.08 84.5074 108.795 84.3874 108.525C84.2774 108.255 84.1224 108.025 83.9224 107.835C83.7324 107.635 83.5024 107.48 83.2324 107.37C82.9724 107.25 82.6824 107.19 82.3624 107.19C82.0324 107.19 81.7324 107.25 81.4624 107.37C81.2024 107.48 80.9774 107.635 80.7874 107.835C80.5974 108.035 80.4474 108.27 80.3374 108.54C80.2274 108.8 80.1624 109.08 80.1424 109.38H84.5974ZM85.8274 111.54C85.6574 112.41 85.2824 113.065 84.7024 113.505C84.1224 113.945 83.3924 114.165 82.5124 114.165C81.8924 114.165 81.3524 114.065 80.8924 113.865C80.4424 113.665 80.0624 113.385 79.7524 113.025C79.4424 112.665 79.2074 112.235 79.0474 111.735C78.8974 111.235 78.8124 110.69 78.7924 110.1C78.7924 109.51 78.8824 108.97 79.0624 108.48C79.2424 107.99 79.4924 107.565 79.8124 107.205C80.1424 106.845 80.5274 106.565 80.9674 106.365C81.4174 106.165 81.9074 106.065 82.4374 106.065C83.1274 106.065 83.6974 106.21 84.1474 106.5C84.6074 106.78 84.9724 107.14 85.2424 107.58C85.5224 108.02 85.7124 108.5 85.8124 109.02C85.9224 109.54 85.9674 110.035 85.9474 110.505H80.1424C80.1324 110.845 80.1724 111.17 80.2624 111.48C80.3524 111.78 80.4974 112.05 80.6974 112.29C80.8974 112.52 81.1524 112.705 81.4624 112.845C81.7724 112.985 82.1374 113.055 82.5574 113.055C83.0974 113.055 83.5374 112.93 83.8774 112.68C84.2274 112.43 84.4574 112.05 84.5674 111.54H85.8274ZM87.2691 106.245H88.4691V107.475H88.4991C89.0291 106.535 89.8691 106.065 91.0191 106.065C91.5291 106.065 91.9541 106.135 92.2941 106.275C92.6341 106.415 92.9091 106.61 93.1191 106.86C93.3291 107.11 93.4741 107.41 93.5541 107.76C93.6441 108.1 93.6891 108.48 93.6891 108.9V114H92.4141V108.75C92.4141 108.27 92.2741 107.89 91.9941 107.61C91.7141 107.33 91.3291 107.19 90.8391 107.19C90.4491 107.19 90.1091 107.25 89.8191 107.37C89.5391 107.49 89.3041 107.66 89.1141 107.88C88.9241 108.1 88.7791 108.36 88.6791 108.66C88.5891 108.95 88.5441 109.27 88.5441 109.62V114H87.2691V106.245ZM97.374 106.245H98.919V107.37H97.374V112.185C97.374 112.335 97.384 112.455 97.404 112.545C97.434 112.635 97.484 112.705 97.554 112.755C97.624 112.805 97.719 112.84 97.839 112.86C97.969 112.87 98.134 112.875 98.334 112.875H98.919V114H97.944C97.614 114 97.329 113.98 97.089 113.94C96.859 113.89 96.669 113.805 96.519 113.685C96.379 113.565 96.274 113.395 96.204 113.175C96.134 112.955 96.099 112.665 96.099 112.305V107.37H94.779V106.245H96.099V103.92H97.374V106.245ZM105.72 109.38C105.7 109.08 105.63 108.795 105.51 108.525C105.4 108.255 105.245 108.025 105.045 107.835C104.855 107.635 104.625 107.48 104.355 107.37C104.095 107.25 103.805 107.19 103.485 107.19C103.155 107.19 102.855 107.25 102.585 107.37C102.325 107.48 102.1 107.635 101.91 107.835C101.72 108.035 101.57 108.27 101.46 108.54C101.35 108.8 101.285 109.08 101.265 109.38H105.72ZM106.95 111.54C106.78 112.41 106.405 113.065 105.825 113.505C105.245 113.945 104.515 114.165 103.635 114.165C103.015 114.165 102.475 114.065 102.015 113.865C101.565 113.665 101.185 113.385 100.875 113.025C100.565 112.665 100.33 112.235 100.17 111.735C100.02 111.235 99.9355 110.69 99.9155 110.1C99.9155 109.51 100.005 108.97 100.185 108.48C100.365 107.99 100.615 107.565 100.935 107.205C101.265 106.845 101.65 106.565 102.09 106.365C102.54 106.165 103.03 106.065 103.56 106.065C104.25 106.065 104.82 106.21 105.27 106.5C105.73 106.78 106.095 107.14 106.365 107.58C106.645 108.02 106.835 108.5 106.935 109.02C107.045 109.54 107.09 110.035 107.07 110.505H101.265C101.255 110.845 101.295 111.17 101.385 111.48C101.475 111.78 101.62 112.05 101.82 112.29C102.02 112.52 102.275 112.705 102.585 112.845C102.895 112.985 103.26 113.055 103.68 113.055C104.22 113.055 104.66 112.93 105 112.68C105.35 112.43 105.58 112.05 105.69 111.54H106.95ZM109.172 111.555C109.182 111.835 109.247 112.075 109.367 112.275C109.487 112.465 109.642 112.62 109.832 112.74C110.032 112.85 110.252 112.93 110.492 112.98C110.742 113.03 110.997 113.055 111.257 113.055C111.457 113.055 111.667 113.04 111.887 113.01C112.107 112.98 112.307 112.925 112.487 112.845C112.677 112.765 112.832 112.65 112.952 112.5C113.072 112.34 113.132 112.14 113.132 111.9C113.132 111.57 113.007 111.32 112.757 111.15C112.507 110.98 112.192 110.845 111.812 110.745C111.442 110.635 111.037 110.54 110.597 110.46C110.157 110.37 109.747 110.25 109.367 110.1C108.997 109.94 108.687 109.72 108.437 109.44C108.187 109.16 108.062 108.77 108.062 108.27C108.062 107.88 108.147 107.545 108.317 107.265C108.497 106.985 108.722 106.76 108.992 106.59C109.272 106.41 109.582 106.28 109.922 106.2C110.272 106.11 110.617 106.065 110.957 106.065C111.397 106.065 111.802 106.105 112.172 106.185C112.542 106.255 112.867 106.385 113.147 106.575C113.437 106.755 113.667 107.005 113.837 107.325C114.007 107.635 114.107 108.025 114.137 108.495H112.862C112.842 108.245 112.777 108.04 112.667 107.88C112.557 107.71 112.417 107.575 112.247 107.475C112.077 107.375 111.887 107.305 111.677 107.265C111.477 107.215 111.272 107.19 111.062 107.19C110.872 107.19 110.677 107.205 110.477 107.235C110.287 107.265 110.112 107.32 109.952 107.4C109.792 107.47 109.662 107.57 109.562 107.7C109.462 107.82 109.412 107.98 109.412 108.18C109.412 108.4 109.487 108.585 109.637 108.735C109.797 108.875 109.997 108.995 110.237 109.095C110.477 109.185 110.747 109.265 111.047 109.335C111.347 109.395 111.647 109.46 111.947 109.53C112.267 109.6 112.577 109.685 112.877 109.785C113.187 109.885 113.457 110.02 113.687 110.19C113.927 110.35 114.117 110.555 114.257 110.805C114.407 111.055 114.482 111.365 114.482 111.735C114.482 112.205 114.382 112.595 114.182 112.905C113.992 113.215 113.737 113.465 113.417 113.655C113.107 113.845 112.752 113.975 112.352 114.045C111.962 114.125 111.572 114.165 111.182 114.165C110.752 114.165 110.342 114.12 109.952 114.03C109.562 113.94 109.217 113.795 108.917 113.595C108.617 113.385 108.377 113.115 108.197 112.785C108.017 112.445 107.917 112.035 107.897 111.555H109.172ZM120.997 110.19C120.997 110.55 121.042 110.905 121.132 111.255C121.232 111.595 121.377 111.9 121.567 112.17C121.767 112.44 122.017 112.655 122.317 112.815C122.627 112.975 122.987 113.055 123.397 113.055C123.827 113.055 124.192 112.97 124.492 112.8C124.792 112.63 125.037 112.41 125.227 112.14C125.417 111.86 125.552 111.545 125.632 111.195C125.722 110.845 125.767 110.49 125.767 110.13C125.767 109.75 125.722 109.385 125.632 109.035C125.542 108.675 125.397 108.36 125.197 108.09C125.007 107.82 124.757 107.605 124.447 107.445C124.137 107.275 123.762 107.19 123.322 107.19C122.892 107.19 122.527 107.275 122.227 107.445C121.927 107.615 121.687 107.84 121.507 108.12C121.327 108.4 121.197 108.72 121.117 109.08C121.037 109.44 120.997 109.81 120.997 110.19ZM126.997 114H125.722V112.95H125.692C125.482 113.38 125.152 113.69 124.702 113.88C124.252 114.07 123.757 114.165 123.217 114.165C122.617 114.165 122.092 114.055 121.642 113.835C121.202 113.615 120.832 113.32 120.532 112.95C120.242 112.58 120.022 112.15 119.872 111.66C119.722 111.17 119.647 110.65 119.647 110.1C119.647 109.55 119.717 109.03 119.857 108.54C120.007 108.05 120.227 107.625 120.517 107.265C120.817 106.895 121.187 106.605 121.627 106.395C122.077 106.175 122.597 106.065 123.187 106.065C123.387 106.065 123.602 106.085 123.832 106.125C124.062 106.165 124.292 106.235 124.522 106.335C124.752 106.425 124.967 106.55 125.167 106.71C125.377 106.86 125.552 107.05 125.692 107.28H125.722V103.29H126.997V114ZM134.344 109.38C134.324 109.08 134.254 108.795 134.134 108.525C134.024 108.255 133.869 108.025 133.669 107.835C133.479 107.635 133.249 107.48 132.979 107.37C132.719 107.25 132.429 107.19 132.109 107.19C131.779 107.19 131.479 107.25 131.209 107.37C130.949 107.48 130.724 107.635 130.534 107.835C130.344 108.035 130.194 108.27 130.084 108.54C129.974 108.8 129.909 109.08 129.889 109.38H134.344ZM135.574 111.54C135.404 112.41 135.029 113.065 134.449 113.505C133.869 113.945 133.139 114.165 132.259 114.165C131.639 114.165 131.099 114.065 130.639 113.865C130.189 113.665 129.809 113.385 129.499 113.025C129.189 112.665 128.954 112.235 128.794 111.735C128.644 111.235 128.559 110.69 128.539 110.1C128.539 109.51 128.629 108.97 128.809 108.48C128.989 107.99 129.239 107.565 129.559 107.205C129.889 106.845 130.274 106.565 130.714 106.365C131.164 106.165 131.654 106.065 132.184 106.065C132.874 106.065 133.444 106.21 133.894 106.5C134.354 106.78 134.719 107.14 134.989 107.58C135.269 108.02 135.459 108.5 135.559 109.02C135.669 109.54 135.714 110.035 135.694 110.505H129.889C129.879 110.845 129.919 111.17 130.009 111.48C130.099 111.78 130.244 112.05 130.444 112.29C130.644 112.52 130.899 112.705 131.209 112.845C131.519 112.985 131.884 113.055 132.304 113.055C132.844 113.055 133.284 112.93 133.624 112.68C133.974 112.43 134.204 112.05 134.314 111.54H135.574ZM143.245 109.575H146.875L145.09 104.58H145.06L143.245 109.575ZM144.31 103.29H145.885L150.07 114H148.495L147.325 110.775H142.795L141.595 114H140.14L144.31 103.29ZM150.992 103.29H152.267V114H150.992V103.29ZM153.612 113.025L158.292 107.37H153.912V106.245H159.942V107.115L155.202 112.875H160.152V114H153.612V113.025ZM161.449 103.29H162.724V107.385H162.754C162.854 107.145 162.994 106.945 163.174 106.785C163.354 106.615 163.554 106.48 163.774 106.38C164.004 106.27 164.239 106.19 164.479 106.14C164.729 106.09 164.969 106.065 165.199 106.065C165.709 106.065 166.134 106.135 166.474 106.275C166.814 106.415 167.089 106.61 167.299 106.86C167.509 107.11 167.654 107.41 167.734 107.76C167.824 108.1 167.869 108.48 167.869 108.9V114H166.594V108.75C166.594 108.27 166.454 107.89 166.174 107.61C165.894 107.33 165.509 107.19 165.019 107.19C164.629 107.19 164.289 107.25 163.999 107.37C163.719 107.49 163.484 107.66 163.294 107.88C163.104 108.1 162.959 108.36 162.859 108.66C162.769 108.95 162.724 109.27 162.724 109.62V114H161.449V103.29ZM175.169 109.38C175.149 109.08 175.079 108.795 174.959 108.525C174.849 108.255 174.694 108.025 174.494 107.835C174.304 107.635 174.074 107.48 173.804 107.37C173.544 107.25 173.254 107.19 172.934 107.19C172.604 107.19 172.304 107.25 172.034 107.37C171.774 107.48 171.549 107.635 171.359 107.835C171.169 108.035 171.019 108.27 170.909 108.54C170.799 108.8 170.734 109.08 170.714 109.38H175.169ZM176.399 111.54C176.229 112.41 175.854 113.065 175.274 113.505C174.694 113.945 173.964 114.165 173.084 114.165C172.464 114.165 171.924 114.065 171.464 113.865C171.014 113.665 170.634 113.385 170.324 113.025C170.014 112.665 169.779 112.235 169.619 111.735C169.469 111.235 169.384 110.69 169.364 110.1C169.364 109.51 169.454 108.97 169.634 108.48C169.814 107.99 170.064 107.565 170.384 107.205C170.714 106.845 171.099 106.565 171.539 106.365C171.989 106.165 172.479 106.065 173.009 106.065C173.699 106.065 174.269 106.21 174.719 106.5C175.179 106.78 175.544 107.14 175.814 107.58C176.094 108.02 176.284 108.5 176.384 109.02C176.494 109.54 176.539 110.035 176.519 110.505H170.714C170.704 110.845 170.744 111.17 170.834 111.48C170.924 111.78 171.069 112.05 171.269 112.29C171.469 112.52 171.724 112.705 172.034 112.845C172.344 112.985 172.709 113.055 173.129 113.055C173.669 113.055 174.109 112.93 174.449 112.68C174.799 112.43 175.029 112.05 175.139 111.54H176.399ZM179.19 104.85H177.915V103.29H179.19V104.85ZM177.915 106.245H179.19V114H177.915V106.245ZM181.166 106.245H182.366V107.385H182.396C182.976 106.505 183.811 106.065 184.901 106.065C185.381 106.065 185.816 106.165 186.206 106.365C186.596 106.565 186.871 106.905 187.031 107.385C187.291 106.965 187.631 106.64 188.051 106.41C188.481 106.18 188.951 106.065 189.461 106.065C189.851 106.065 190.201 106.11 190.511 106.2C190.831 106.28 191.101 106.41 191.321 106.59C191.551 106.77 191.726 107.005 191.846 107.295C191.976 107.575 192.041 107.915 192.041 108.315V114H190.766V108.915C190.766 108.675 190.746 108.45 190.706 108.24C190.666 108.03 190.591 107.85 190.481 107.7C190.371 107.54 190.216 107.415 190.016 107.325C189.826 107.235 189.576 107.19 189.266 107.19C188.636 107.19 188.141 107.37 187.781 107.73C187.421 108.09 187.241 108.57 187.241 109.17V114H185.966V108.915C185.966 108.665 185.941 108.435 185.891 108.225C185.851 108.015 185.776 107.835 185.666 107.685C185.556 107.525 185.406 107.405 185.216 107.325C185.036 107.235 184.801 107.19 184.511 107.19C184.141 107.19 183.821 107.265 183.551 107.415C183.291 107.565 183.076 107.745 182.906 107.955C182.746 108.165 182.626 108.385 182.546 108.615C182.476 108.835 182.441 109.02 182.441 109.17V114H181.166V106.245ZM199.339 109.38C199.319 109.08 199.249 108.795 199.129 108.525C199.019 108.255 198.864 108.025 198.664 107.835C198.474 107.635 198.244 107.48 197.974 107.37C197.714 107.25 197.424 107.19 197.104 107.19C196.774 107.19 196.474 107.25 196.204 107.37C195.944 107.48 195.719 107.635 195.529 107.835C195.339 108.035 195.189 108.27 195.079 108.54C194.969 108.8 194.904 109.08 194.884 109.38H199.339ZM200.569 111.54C200.399 112.41 200.024 113.065 199.444 113.505C198.864 113.945 198.134 114.165 197.254 114.165C196.634 114.165 196.094 114.065 195.634 113.865C195.184 113.665 194.804 113.385 194.494 113.025C194.184 112.665 193.949 112.235 193.789 111.735C193.639 111.235 193.554 110.69 193.534 110.1C193.534 109.51 193.624 108.97 193.804 108.48C193.984 107.99 194.234 107.565 194.554 107.205C194.884 106.845 195.269 106.565 195.709 106.365C196.159 106.165 196.649 106.065 197.179 106.065C197.869 106.065 198.439 106.21 198.889 106.5C199.349 106.78 199.714 107.14 199.984 107.58C200.264 108.02 200.454 108.5 200.554 109.02C200.664 109.54 200.709 110.035 200.689 110.505H194.884C194.874 110.845 194.914 111.17 195.004 111.48C195.094 111.78 195.239 112.05 195.439 112.29C195.639 112.52 195.894 112.705 196.204 112.845C196.514 112.985 196.879 113.055 197.299 113.055C197.839 113.055 198.279 112.93 198.619 112.68C198.969 112.43 199.199 112.05 199.309 111.54H200.569ZM201.965 106.245H203.165V107.88H203.195C203.505 107.25 203.885 106.785 204.335 106.485C204.785 106.185 205.355 106.045 206.045 106.065V107.415C205.535 107.415 205.1 107.485 204.74 107.625C204.38 107.765 204.09 107.97 203.87 108.24C203.65 108.51 203.49 108.84 203.39 109.23C203.29 109.61 203.24 110.05 203.24 110.55V114H201.965V106.245Z" fill="#281F5E"/>
</svg>
