<svg width="160" height="72" viewBox="0 0 160 72" fill="none" xmlns="http://www.w3.org/2000/svg">
<path d="M18.36 13.72C19.0533 13.72 19.7733 13.8667 20.52 14.16C21.2667 14.4533 21.9867 14.84 22.68 15.32H22.64C23.3333 15.8 23.8667 16.4533 24.24 17.28C24.6133 18.1067 24.8 19.0533 24.8 20.12V25.6C24.8 27.76 24.08 29.3733 22.64 30.44C21.9467 30.9467 21.2267 31.3467 20.48 31.64C19.76 31.9067 19.0533 32.04 18.36 32.04H9.64C8.94667 32.04 8.22667 31.9067 7.48 31.64C6.76 31.3467 6.05333 30.9467 5.36 30.44C3.92 29.3733 3.2 27.76 3.2 25.6V22.96C3.2 21.7067 3.98667 21.08 5.56 21.08C7.16 21.08 7.96 21.7067 7.96 22.96V25.28C7.96 25.9733 8.16 26.6 8.56 27.16C8.96 27.72 9.65333 28 10.64 28H17.36C18.3467 28 19.04 27.72 19.44 27.16C19.84 26.6 20.04 25.9733 20.04 25.28V20.44C20.04 19.7733 19.84 19.16 19.44 18.6C19.04 18.0133 18.3467 17.72 17.36 17.72H9.64C8.25333 17.72 6.82667 17.2133 5.36 16.2C3.92 15.08 3.2 13.4667 3.2 11.36V6.6C3.2 5.53333 3.38667 4.6 3.76 3.8C4.13333 2.97333 4.66667 2.30666 5.36 1.8H5.32C6.01333 1.34667 6.73333 0.973332 7.48 0.679998C8.22667 0.386665 8.94667 0.239999 9.64 0.239999H18.36C19.0533 0.239999 19.7733 0.386665 20.52 0.679998C21.2667 0.973332 21.9867 1.34667 22.68 1.8H22.64C23.3333 2.30666 23.8667 2.97333 24.24 3.8C24.6133 4.6 24.8 5.53333 24.8 6.6V8.96C24.8 10.2133 24 10.84 22.4 10.84C20.8267 10.84 20.04 10.2133 20.04 8.96V6.96C20.04 6.29333 19.84 5.68 19.44 5.12C19.04 4.56 18.3467 4.28 17.36 4.28H10.64C9.65333 4.28 8.96 4.56 8.56 5.12C8.16 5.68 7.96 6.29333 7.96 6.96V11.04C7.96 11.7333 8.16 12.36 8.56 12.92C8.96 13.4533 9.65333 13.72 10.64 13.72H18.36ZM39.7706 20.24C39.3173 20.24 38.9573 20.0667 38.6906 19.72C38.4506 19.3467 38.3306 18.8533 38.3306 18.24C38.3306 16.88 38.8906 16.2 40.0106 16.2H44.2506C45.2373 16.2 45.9306 15.92 46.3306 15.36C46.7573 14.8 46.9706 14.1867 46.9706 13.52V6.96C46.9706 6.29333 46.7573 5.68 46.3306 5.12C45.9306 4.56 45.2373 4.28 44.2506 4.28H35.8506V30.4C35.8506 31.68 35.0506 32.32 33.4506 32.32C31.904 32.32 31.1306 31.68 31.1306 30.4V2.64C31.1306 1.68 31.3706 1.04 31.8506 0.719997C32.3306 0.399998 32.9173 0.239999 33.6106 0.239999H45.2906C45.9573 0.239999 46.664 0.386665 47.4106 0.679998C48.1573 0.973332 48.8773 1.34667 49.5706 1.8H49.5306C50.224 2.30666 50.7573 2.97333 51.1306 3.8C51.504 4.6 51.6906 5.53333 51.6906 6.6V13.84C51.6906 16 50.9706 17.6133 49.5306 18.68C48.8373 19.1867 48.1306 19.5733 47.4106 19.84C46.6906 20.1067 45.984 20.24 45.2906 20.24H39.7706ZM68.2903 4.16L59.5303 31.04V31C59.3703 31.4 59.1436 31.7333 58.8503 32C58.5836 32.24 58.2503 32.36 57.8503 32.36C57.637 32.36 57.4236 32.3333 57.2103 32.28C57.0236 32.2533 56.8236 32.2133 56.6103 32.16H56.6503C55.1303 31.68 54.5703 30.8267 54.9703 29.6L64.0903 1.88C64.2236 1.45333 64.4503 1.09333 64.7703 0.799999C65.117 0.506666 65.517 0.333333 65.9703 0.279998C66.4236 0.199998 66.8636 0.146664 67.2903 0.119998C67.717 0.0666653 68.0503 0.039999 68.2903 0.039999C68.5303 0.039999 68.8636 0.0666653 69.2903 0.119998C69.717 0.146664 70.157 0.186665 70.6103 0.239999C70.9836 0.293331 71.3436 0.493331 71.6903 0.839998C72.0636 1.18667 72.3436 1.53333 72.5303 1.88C74.0236 6.46667 75.5303 11.0933 77.0503 15.76C78.597 20.4 80.117 25.0133 81.6103 29.6C81.9836 30.8267 81.4236 31.68 79.9303 32.16C79.717 32.2133 79.517 32.2533 79.3303 32.28C79.1703 32.3333 78.9836 32.36 78.7703 32.36C78.397 32.36 78.0503 32.24 77.7303 32C77.437 31.7333 77.2236 31.4 77.0903 31V31.04L68.2903 4.16ZM71.2903 22.4C71.2903 23.2533 70.9836 23.9867 70.3703 24.6C69.7836 25.1867 69.0636 25.48 68.2103 25.48C67.357 25.48 66.637 25.1867 66.0503 24.6C65.4636 23.9867 65.1703 23.2533 65.1703 22.4C65.1703 21.5467 65.4636 20.8267 66.0503 20.24C66.637 19.6267 67.357 19.32 68.2103 19.32C69.0636 19.32 69.7836 19.6267 70.3703 20.24C70.9836 20.8267 71.2903 21.5467 71.2903 22.4ZM99.3122 28C100.299 28 100.992 27.72 101.392 27.16C101.792 26.6 101.992 25.9733 101.992 25.28V6.96C101.992 6.29333 101.792 5.68 101.392 5.12C100.992 4.56 100.299 4.28 99.3122 4.28H89.9522L89.9122 30.36C89.9122 30.9467 89.6855 31.4133 89.2322 31.76C88.7789 32.1067 88.2189 32.28 87.5522 32.28C85.9789 32.28 85.1922 31.64 85.1922 30.36V2.64C85.1922 1.68 85.4322 1.04 85.9122 0.719997C86.4189 0.399998 87.0189 0.239999 87.7122 0.239999H100.312C101.006 0.239999 101.726 0.386665 102.472 0.679998C103.219 0.973332 103.939 1.34667 104.632 1.8H104.592C105.286 2.30666 105.819 2.97333 106.192 3.8C106.566 4.6 106.752 5.53333 106.752 6.6V25.6C106.752 27.76 106.032 29.3733 104.592 30.44C103.899 30.9467 103.179 31.3467 102.432 31.64C101.712 31.9067 101.006 32.04 100.312 32.04H93.5922C93.1389 32.04 92.7789 31.8533 92.5122 31.48C92.2722 31.1067 92.1522 30.6133 92.1522 30C92.1522 28.6667 92.7255 28 93.8722 28H99.3122ZM123.329 4.16L114.569 31.04V31C114.409 31.4 114.183 31.7333 113.889 32C113.623 32.24 113.289 32.36 112.889 32.36C112.676 32.36 112.463 32.3333 112.249 32.28C112.063 32.2533 111.863 32.2133 111.649 32.16H111.689C110.169 31.68 109.609 30.8267 110.009 29.6L119.129 1.88C119.263 1.45333 119.489 1.09333 119.809 0.799999C120.156 0.506666 120.556 0.333333 121.009 0.279998C121.463 0.199998 121.903 0.146664 122.329 0.119998C122.756 0.0666653 123.089 0.039999 123.329 0.039999C123.569 0.039999 123.903 0.0666653 124.329 0.119998C124.756 0.146664 125.196 0.186665 125.649 0.239999C126.023 0.293331 126.383 0.493331 126.729 0.839998C127.103 1.18667 127.383 1.53333 127.569 1.88C129.063 6.46667 130.569 11.0933 132.089 15.76C133.636 20.4 135.156 25.0133 136.649 29.6C137.023 30.8267 136.463 31.68 134.969 32.16C134.756 32.2133 134.556 32.2533 134.369 32.28C134.209 32.3333 134.023 32.36 133.809 32.36C133.436 32.36 133.089 32.24 132.769 32C132.476 31.7333 132.263 31.4 132.129 31V31.04L123.329 4.16ZM126.329 22.4C126.329 23.2533 126.023 23.9867 125.409 24.6C124.823 25.1867 124.103 25.48 123.249 25.48C122.396 25.48 121.676 25.1867 121.089 24.6C120.503 23.9867 120.209 23.2533 120.209 22.4C120.209 21.5467 120.503 20.8267 121.089 20.24C121.676 19.6267 122.396 19.32 123.249 19.32C124.103 19.32 124.823 19.6267 125.409 20.24C126.023 20.8267 126.329 21.5467 126.329 22.4ZM4.91 53.95C4.85667 53.4367 4.67 53.0667 4.35 52.84C4.03667 52.6067 3.63333 52.49 3.14 52.49C2.94 52.49 2.74333 52.51 2.55 52.55C2.35667 52.59 2.18333 52.6567 2.03 52.75C1.88333 52.8433 1.76333 52.97 1.67 53.13C1.58333 53.2833 1.54 53.4767 1.54 53.71C1.54 53.93 1.60333 54.11 1.73 54.25C1.86333 54.3833 2.03667 54.4933 2.25 54.58C2.47 54.6667 2.71667 54.74 2.99 54.8C3.26333 54.8533 3.54 54.9133 3.82 54.98C4.10667 55.0467 4.38667 55.1267 4.66 55.22C4.93333 55.3067 5.17667 55.4267 5.39 55.58C5.61 55.7333 5.78333 55.9267 5.91 56.16C6.04333 56.3933 6.11 56.6867 6.11 57.04C6.11 57.42 6.02333 57.7467 5.85 58.02C5.68333 58.2867 5.46667 58.5067 5.2 58.68C4.93333 58.8467 4.63333 58.9667 4.3 59.04C3.97333 59.12 3.64667 59.16 3.32 59.16C2.92 59.16 2.54 59.11 2.18 59.01C1.82667 58.91 1.51333 58.76 1.24 58.56C0.973333 58.3533 0.76 58.0933 0.6 57.78C0.446667 57.46 0.37 57.0833 0.37 56.65H1.27C1.27 56.95 1.32667 57.21 1.44 57.43C1.56 57.6433 1.71333 57.82 1.9 57.96C2.09333 58.1 2.31667 58.2033 2.57 58.27C2.82333 58.3367 3.08333 58.37 3.35 58.37C3.56333 58.37 3.77667 58.35 3.99 58.31C4.21 58.27 4.40667 58.2033 4.58 58.11C4.75333 58.01 4.89333 57.8767 5 57.71C5.10667 57.5433 5.16 57.33 5.16 57.07C5.16 56.8233 5.09333 56.6233 4.96 56.47C4.83333 56.3167 4.66 56.1933 4.44 56.1C4.22667 56 3.98333 55.92 3.71 55.86C3.43667 55.8 3.15667 55.74 2.87 55.68C2.59 55.6133 2.31333 55.54 2.04 55.46C1.76667 55.3733 1.52 55.2633 1.3 55.13C1.08667 54.99 0.913333 54.8133 0.78 54.6C0.653333 54.38 0.59 54.1067 0.59 53.78C0.59 53.42 0.663333 53.11 0.81 52.85C0.956667 52.5833 1.15 52.3667 1.39 52.2C1.63667 52.0267 1.91333 51.9 2.22 51.82C2.53333 51.7333 2.85333 51.69 3.18 51.69C3.54667 51.69 3.88667 51.7333 4.2 51.82C4.51333 51.9067 4.78667 52.0433 5.02 52.23C5.26 52.4167 5.44667 52.6533 5.58 52.94C5.72 53.22 5.79667 53.5567 5.81 53.95H4.91ZM10.7144 55.92C10.701 55.72 10.6544 55.53 10.5744 55.35C10.501 55.17 10.3977 55.0167 10.2644 54.89C10.1377 54.7567 9.98438 54.6533 9.80438 54.58C9.63104 54.5 9.43771 54.46 9.22438 54.46C9.00438 54.46 8.80438 54.5 8.62438 54.58C8.45104 54.6533 8.30104 54.7567 8.17438 54.89C8.04771 55.0233 7.94771 55.18 7.87438 55.36C7.80104 55.5333 7.75771 55.72 7.74438 55.92H10.7144ZM11.5344 57.36C11.421 57.94 11.171 58.3767 10.7844 58.67C10.3977 58.9633 9.91104 59.11 9.32438 59.11C8.91104 59.11 8.55104 59.0433 8.24438 58.91C7.94438 58.7767 7.69104 58.59 7.48438 58.35C7.27771 58.11 7.12104 57.8233 7.01438 57.49C6.91438 57.1567 6.85771 56.7933 6.84438 56.4C6.84438 56.0067 6.90438 55.6467 7.02438 55.32C7.14438 54.9933 7.31104 54.71 7.52438 54.47C7.74438 54.23 8.00104 54.0433 8.29438 53.91C8.59438 53.7767 8.92104 53.71 9.27438 53.71C9.73438 53.71 10.1144 53.8067 10.4144 54C10.721 54.1867 10.9644 54.4267 11.1444 54.72C11.331 55.0133 11.4577 55.3333 11.5244 55.68C11.5977 56.0267 11.6277 56.3567 11.6144 56.67H7.74438C7.73771 56.8967 7.76438 57.1133 7.82438 57.32C7.88438 57.52 7.98104 57.7 8.11438 57.86C8.24771 58.0133 8.41771 58.1367 8.62438 58.23C8.83104 58.3233 9.07438 58.37 9.35438 58.37C9.71438 58.37 10.0077 58.2867 10.2344 58.12C10.4677 57.9533 10.621 57.7 10.6944 57.36H11.5344ZM12.4655 53.83H13.2655V54.92H13.2855C13.4921 54.5 13.7455 54.19 14.0455 53.99C14.3455 53.79 14.7255 53.6967 15.1855 53.71V54.61C14.8455 54.61 14.5555 54.6567 14.3155 54.75C14.0755 54.8433 13.8821 54.98 13.7355 55.16C13.5888 55.34 13.4821 55.56 13.4155 55.82C13.3488 56.0733 13.3155 56.3667 13.3155 56.7V59H12.4655V53.83ZM18.1555 59H17.2455L15.3255 53.83H16.2755L17.7255 58.14H17.7455L19.1555 53.83H20.0455L18.1555 59ZM21.7255 52.9H20.8755V51.86H21.7255V52.9ZM20.8755 53.83H21.7255V59H20.8755V53.83ZM26.5523 55.49C26.4857 55.1633 26.3457 54.91 26.1323 54.73C25.919 54.55 25.6323 54.46 25.2723 54.46C24.9657 54.46 24.709 54.5167 24.5023 54.63C24.2957 54.7433 24.129 54.8933 24.0023 55.08C23.8823 55.2667 23.7957 55.4833 23.7423 55.73C23.689 55.97 23.6623 56.22 23.6623 56.48C23.6623 56.72 23.689 56.9533 23.7423 57.18C23.8023 57.4067 23.8923 57.61 24.0123 57.79C24.1323 57.9633 24.289 58.1033 24.4823 58.21C24.6757 58.3167 24.9057 58.37 25.1723 58.37C25.5923 58.37 25.919 58.26 26.1523 58.04C26.3923 57.82 26.539 57.51 26.5923 57.11H27.4623C27.369 57.7167 27.1423 58.1933 26.7823 58.54C26.4223 58.8867 25.939 59.0733 25.3323 59.1L25.0023 59.52L25.0223 59.54C25.089 59.4933 25.199 59.47 25.3523 59.47C25.5657 59.47 25.759 59.53 25.9323 59.65C26.1057 59.77 26.1923 59.9533 26.1923 60.2C26.1923 60.3667 26.1523 60.5067 26.0723 60.62C25.999 60.7333 25.9023 60.8233 25.7823 60.89C25.6623 60.9633 25.529 61.0133 25.3823 61.04C25.2357 61.0733 25.0923 61.09 24.9523 61.09C24.7923 61.09 24.6357 61.07 24.4823 61.03C24.3357 60.9967 24.1857 60.9533 24.0323 60.9L24.2123 60.46C24.2923 60.4933 24.3857 60.5233 24.4923 60.55C24.6057 60.5767 24.7157 60.59 24.8223 60.59C24.889 60.59 24.959 60.5833 25.0323 60.57C25.1057 60.5633 25.1723 60.5467 25.2323 60.52C25.2923 60.4933 25.3423 60.46 25.3823 60.42C25.4223 60.3867 25.4423 60.34 25.4423 60.28C25.4423 60.1867 25.3957 60.11 25.3023 60.05C25.2157 59.9967 25.1057 59.97 24.9723 59.97C24.8923 59.97 24.8223 59.9767 24.7623 59.99C24.7023 60.0033 24.6357 60.0233 24.5623 60.05L24.3923 59.77L24.9223 59.09C24.569 59.0633 24.2557 58.98 23.9823 58.84C23.7157 58.7 23.4923 58.5167 23.3123 58.29C23.1323 58.0633 22.9957 57.7967 22.9023 57.49C22.809 57.1833 22.7623 56.8467 22.7623 56.48C22.7623 56.0933 22.8123 55.7333 22.9123 55.4C23.0123 55.06 23.1623 54.7667 23.3623 54.52C23.569 54.2667 23.8257 54.07 24.1323 53.93C24.439 53.7833 24.7957 53.71 25.2023 53.71C25.4957 53.71 25.769 53.7467 26.0223 53.82C26.2823 53.8867 26.509 53.9933 26.7023 54.14C26.9023 54.2867 27.0657 54.4733 27.1923 54.7C27.319 54.92 27.399 55.1833 27.4323 55.49H26.5523ZM29.0334 56.42C29.0334 56.7333 29.0734 57.0133 29.1534 57.26C29.2401 57.5 29.3568 57.7033 29.5034 57.87C29.6501 58.03 29.8201 58.1533 30.0134 58.24C30.2134 58.3267 30.4234 58.37 30.6434 58.37C30.8634 58.37 31.0701 58.3267 31.2634 58.24C31.4634 58.1533 31.6368 58.03 31.7834 57.87C31.9301 57.7033 32.0434 57.5 32.1234 57.26C32.2101 57.0133 32.2534 56.7333 32.2534 56.42C32.2534 56.1067 32.2101 55.83 32.1234 55.59C32.0434 55.3433 31.9301 55.1367 31.7834 54.97C31.6368 54.8033 31.4634 54.6767 31.2634 54.59C31.0701 54.5033 30.8634 54.46 30.6434 54.46C30.4234 54.46 30.2134 54.5033 30.0134 54.59C29.8201 54.6767 29.6501 54.8033 29.5034 54.97C29.3568 55.1367 29.2401 55.3433 29.1534 55.59C29.0734 55.83 29.0334 56.1067 29.0334 56.42ZM28.1334 56.42C28.1334 56.04 28.1868 55.6867 28.2934 55.36C28.4001 55.0267 28.5601 54.74 28.7734 54.5C28.9868 54.2533 29.2501 54.06 29.5634 53.92C29.8768 53.78 30.2368 53.71 30.6434 53.71C31.0568 53.71 31.4168 53.78 31.7234 53.92C32.0368 54.06 32.3001 54.2533 32.5134 54.5C32.7268 54.74 32.8868 55.0267 32.9934 55.36C33.1001 55.6867 33.1534 56.04 33.1534 56.42C33.1534 56.8 33.1001 57.1533 32.9934 57.48C32.8868 57.8067 32.7268 58.0933 32.5134 58.34C32.3001 58.58 32.0368 58.77 31.7234 58.91C31.4168 59.0433 31.0568 59.11 30.6434 59.11C30.2368 59.11 29.8768 59.0433 29.5634 58.91C29.2501 58.77 28.9868 58.58 28.7734 58.34C28.5601 58.0933 28.4001 57.8067 28.2934 57.48C28.1868 57.1533 28.1334 56.8 28.1334 56.42ZM37.5588 56.46C37.5588 56.7 37.5888 56.9367 37.6488 57.17C37.7155 57.3967 37.8122 57.6 37.9388 57.78C38.0722 57.96 38.2388 58.1033 38.4388 58.21C38.6455 58.3167 38.8855 58.37 39.1588 58.37C39.4455 58.37 39.6888 58.3133 39.8888 58.2C40.0888 58.0867 40.2522 57.94 40.3788 57.76C40.5055 57.5733 40.5955 57.3633 40.6488 57.13C40.7088 56.8967 40.7388 56.66 40.7388 56.42C40.7388 56.1667 40.7088 55.9233 40.6488 55.69C40.5888 55.45 40.4922 55.24 40.3588 55.06C40.2322 54.88 40.0655 54.7367 39.8588 54.63C39.6522 54.5167 39.4022 54.46 39.1088 54.46C38.8222 54.46 38.5788 54.5167 38.3788 54.63C38.1788 54.7433 38.0188 54.8933 37.8988 55.08C37.7788 55.2667 37.6922 55.48 37.6388 55.72C37.5855 55.96 37.5588 56.2067 37.5588 56.46ZM41.5588 59H40.7088V58.3H40.6888C40.5488 58.5867 40.3288 58.7933 40.0288 58.92C39.7288 59.0467 39.3988 59.11 39.0388 59.11C38.6388 59.11 38.2888 59.0367 37.9888 58.89C37.6955 58.7433 37.4488 58.5467 37.2488 58.3C37.0555 58.0533 36.9088 57.7667 36.8088 57.44C36.7088 57.1133 36.6588 56.7667 36.6588 56.4C36.6588 56.0333 36.7055 55.6867 36.7988 55.36C36.8988 55.0333 37.0455 54.75 37.2388 54.51C37.4388 54.2633 37.6855 54.07 37.9788 53.93C38.2788 53.7833 38.6255 53.71 39.0188 53.71C39.1522 53.71 39.2955 53.7233 39.4488 53.75C39.6022 53.7767 39.7555 53.8233 39.9088 53.89C40.0622 53.95 40.2055 54.0333 40.3388 54.14C40.4788 54.24 40.5955 54.3667 40.6888 54.52H40.7088V51.86H41.5588V59ZM46.4566 55.92C46.4432 55.72 46.3966 55.53 46.3166 55.35C46.2432 55.17 46.1399 55.0167 46.0066 54.89C45.8799 54.7567 45.7266 54.6533 45.5466 54.58C45.3732 54.5 45.1799 54.46 44.9666 54.46C44.7466 54.46 44.5466 54.5 44.3666 54.58C44.1932 54.6533 44.0432 54.7567 43.9166 54.89C43.7899 55.0233 43.6899 55.18 43.6166 55.36C43.5432 55.5333 43.4999 55.72 43.4866 55.92H46.4566ZM47.2766 57.36C47.1632 57.94 46.9132 58.3767 46.5266 58.67C46.1399 58.9633 45.6532 59.11 45.0666 59.11C44.6532 59.11 44.2932 59.0433 43.9866 58.91C43.6866 58.7767 43.4332 58.59 43.2266 58.35C43.0199 58.11 42.8632 57.8233 42.7566 57.49C42.6566 57.1567 42.5999 56.7933 42.5866 56.4C42.5866 56.0067 42.6466 55.6467 42.7666 55.32C42.8866 54.9933 43.0532 54.71 43.2666 54.47C43.4866 54.23 43.7432 54.0433 44.0366 53.91C44.3366 53.7767 44.6632 53.71 45.0166 53.71C45.4766 53.71 45.8566 53.8067 46.1566 54C46.4632 54.1867 46.7066 54.4267 46.8866 54.72C47.0732 55.0133 47.1999 55.3333 47.2666 55.68C47.3399 56.0267 47.3699 56.3567 47.3566 56.67H43.4866C43.4799 56.8967 43.5066 57.1133 43.5666 57.32C43.6266 57.52 43.7232 57.7 43.8566 57.86C43.9899 58.0133 44.1599 58.1367 44.3666 58.23C44.5732 58.3233 44.8166 58.37 45.0966 58.37C45.4566 58.37 45.7499 58.2867 45.9766 58.12C46.2099 57.9533 46.3632 57.7 46.4366 57.36H47.2766ZM52.1109 55.28H53.9709C54.5109 55.2867 54.9042 55.1767 55.1509 54.95C55.4042 54.7233 55.5309 54.3967 55.5309 53.97C55.5309 53.5433 55.4042 53.22 55.1509 53C54.9042 52.7733 54.5109 52.66 53.9709 52.66H52.1109V55.28ZM51.1609 51.86H54.2909C55.0109 51.86 55.5542 52.0467 55.9209 52.42C56.2942 52.7867 56.4809 53.3033 56.4809 53.97C56.4809 54.6367 56.2942 55.1567 55.9209 55.53C55.5542 55.9033 55.0109 56.0867 54.2909 56.08H52.1109V59H51.1609V51.86ZM57.4752 53.83H58.2752V54.92H58.2952C58.5019 54.5 58.7552 54.19 59.0552 53.99C59.3552 53.79 59.7352 53.6967 60.1952 53.71V54.61C59.8552 54.61 59.5652 54.6567 59.3252 54.75C59.0852 54.8433 58.8919 54.98 58.7452 55.16C58.5986 55.34 58.4919 55.56 58.4252 55.82C58.3586 56.0733 58.3252 56.3667 58.3252 56.7V59H57.4752V53.83ZM64.2495 55.92C64.2362 55.72 64.1895 55.53 64.1095 55.35C64.0362 55.17 63.9329 55.0167 63.7995 54.89C63.6729 54.7567 63.5195 54.6533 63.3395 54.58C63.1662 54.5 62.9729 54.46 62.7595 54.46C62.5395 54.46 62.3395 54.5 62.1595 54.58C61.9862 54.6533 61.8362 54.7567 61.7095 54.89C61.5829 55.0233 61.4829 55.18 61.4095 55.36C61.3362 55.5333 61.2929 55.72 61.2795 55.92H64.2495ZM65.0695 57.36C64.9562 57.94 64.7062 58.3767 64.3195 58.67C63.9329 58.9633 63.4462 59.11 62.8595 59.11C62.4462 59.11 62.0862 59.0433 61.7795 58.91C61.4795 58.7767 61.2262 58.59 61.0195 58.35C60.8129 58.11 60.6562 57.8233 60.5495 57.49C60.4495 57.1567 60.3929 56.7933 60.3795 56.4C60.3795 56.0067 60.4395 55.6467 60.5595 55.32C60.6795 54.9933 60.8462 54.71 61.0595 54.47C61.2795 54.23 61.5362 54.0433 61.8295 53.91C62.1295 53.7767 62.4562 53.71 62.8095 53.71C63.2695 53.71 63.6495 53.8067 63.9495 54C64.2562 54.1867 64.4995 54.4267 64.6795 54.72C64.8662 55.0133 64.9929 55.3333 65.0595 55.68C65.1329 56.0267 65.1629 56.3567 65.1495 56.67H61.2795C61.2729 56.8967 61.2995 57.1133 61.3595 57.32C61.4195 57.52 61.5162 57.7 61.6495 57.86C61.7829 58.0133 61.9529 58.1367 62.1595 58.23C62.3662 58.3233 62.6095 58.37 62.8895 58.37C63.2495 58.37 63.5429 58.2867 63.7695 58.12C64.0029 57.9533 64.1562 57.7 64.2295 57.36H65.0695ZM68.3606 59H67.4506L65.5306 53.83H66.4806L67.9306 58.14H67.9506L69.3606 53.83H70.2506L68.3606 59ZM74.6206 55.92C74.6073 55.72 74.5606 55.53 74.4806 55.35C74.4073 55.17 74.304 55.0167 74.1706 54.89C74.044 54.7567 73.8906 54.6533 73.7106 54.58C73.5373 54.5 73.344 54.46 73.1306 54.46C72.9106 54.46 72.7106 54.5 72.5306 54.58C72.3573 54.6533 72.2073 54.7567 72.0806 54.89C71.954 55.0233 71.854 55.18 71.7806 55.36C71.7073 55.5333 71.664 55.72 71.6506 55.92H74.6206ZM75.4406 57.36C75.3273 57.94 75.0773 58.3767 74.6906 58.67C74.304 58.9633 73.8173 59.11 73.2306 59.11C72.8173 59.11 72.4573 59.0433 72.1506 58.91C71.8506 58.7767 71.5973 58.59 71.3906 58.35C71.184 58.11 71.0273 57.8233 70.9206 57.49C70.8206 57.1567 70.764 56.7933 70.7506 56.4C70.7506 56.0067 70.8106 55.6467 70.9306 55.32C71.0506 54.9933 71.2173 54.71 71.4306 54.47C71.6506 54.23 71.9073 54.0433 72.2006 53.91C72.5006 53.7767 72.8273 53.71 73.1806 53.71C73.6406 53.71 74.0206 53.8067 74.3206 54C74.6273 54.1867 74.8706 54.4267 75.0506 54.72C75.2373 55.0133 75.364 55.3333 75.4306 55.68C75.504 56.0267 75.534 56.3567 75.5206 56.67H71.6506C71.644 56.8967 71.6706 57.1133 71.7306 57.32C71.7906 57.52 71.8873 57.7 72.0206 57.86C72.154 58.0133 72.324 58.1367 72.5306 58.23C72.7373 58.3233 72.9806 58.37 73.2606 58.37C73.6206 58.37 73.914 58.2867 74.1406 58.12C74.374 57.9533 74.5273 57.7 74.6006 57.36H75.4406ZM76.4017 53.83H77.2017V54.65H77.2217C77.5751 54.0233 78.1351 53.71 78.9017 53.71C79.2417 53.71 79.5251 53.7567 79.7517 53.85C79.9784 53.9433 80.1617 54.0733 80.3017 54.24C80.4417 54.4067 80.5384 54.6067 80.5917 54.84C80.6517 55.0667 80.6817 55.32 80.6817 55.6V59H79.8317V55.5C79.8317 55.18 79.7384 54.9267 79.5517 54.74C79.3651 54.5533 79.1084 54.46 78.7817 54.46C78.5217 54.46 78.2951 54.5 78.1017 54.58C77.9151 54.66 77.7584 54.7733 77.6317 54.92C77.5051 55.0667 77.4084 55.24 77.3417 55.44C77.2817 55.6333 77.2517 55.8467 77.2517 56.08V59H76.4017V53.83ZM85.4684 55.49C85.4017 55.1633 85.2617 54.91 85.0484 54.73C84.835 54.55 84.5484 54.46 84.1884 54.46C83.8817 54.46 83.625 54.5167 83.4184 54.63C83.2117 54.7433 83.045 54.8933 82.9184 55.08C82.7984 55.2667 82.7117 55.4833 82.6584 55.73C82.605 55.97 82.5784 56.22 82.5784 56.48C82.5784 56.72 82.605 56.9533 82.6584 57.18C82.7184 57.4067 82.8084 57.61 82.9284 57.79C83.0484 57.9633 83.205 58.1033 83.3984 58.21C83.5917 58.3167 83.8217 58.37 84.0884 58.37C84.5084 58.37 84.835 58.26 85.0684 58.04C85.3084 57.82 85.455 57.51 85.5084 57.11H86.3784C86.285 57.7167 86.0584 58.1933 85.6984 58.54C85.3384 58.8867 84.855 59.0733 84.2484 59.1L83.9184 59.52L83.9384 59.54C84.005 59.4933 84.115 59.47 84.2684 59.47C84.4817 59.47 84.675 59.53 84.8484 59.65C85.0217 59.77 85.1084 59.9533 85.1084 60.2C85.1084 60.3667 85.0684 60.5067 84.9884 60.62C84.915 60.7333 84.8184 60.8233 84.6984 60.89C84.5784 60.9633 84.445 61.0133 84.2984 61.04C84.1517 61.0733 84.0084 61.09 83.8684 61.09C83.7084 61.09 83.5517 61.07 83.3984 61.03C83.2517 60.9967 83.1017 60.9533 82.9484 60.9L83.1284 60.46C83.2084 60.4933 83.3017 60.5233 83.4084 60.55C83.5217 60.5767 83.6317 60.59 83.7384 60.59C83.805 60.59 83.875 60.5833 83.9484 60.57C84.0217 60.5633 84.0884 60.5467 84.1484 60.52C84.2084 60.4933 84.2584 60.46 84.2984 60.42C84.3384 60.3867 84.3584 60.34 84.3584 60.28C84.3584 60.1867 84.3117 60.11 84.2184 60.05C84.1317 59.9967 84.0217 59.97 83.8884 59.97C83.8084 59.97 83.7384 59.9767 83.6784 59.99C83.6184 60.0033 83.5517 60.0233 83.4784 60.05L83.3084 59.77L83.8384 59.09C83.485 59.0633 83.1717 58.98 82.8984 58.84C82.6317 58.7 82.4084 58.5167 82.2284 58.29C82.0484 58.0633 81.9117 57.7967 81.8184 57.49C81.725 57.1833 81.6784 56.8467 81.6784 56.48C81.6784 56.0933 81.7284 55.7333 81.8284 55.4C81.9284 55.06 82.0784 54.7667 82.2784 54.52C82.485 54.2667 82.7417 54.07 83.0484 53.93C83.355 53.7833 83.7117 53.71 84.1184 53.71C84.4117 53.71 84.685 53.7467 84.9384 53.82C85.1984 53.8867 85.425 53.9933 85.6184 54.14C85.8184 54.2867 85.9817 54.4733 86.1084 54.7C86.235 54.92 86.315 55.1833 86.3484 55.49H85.4684ZM91.9095 58.98C91.7628 59.0667 91.5595 59.11 91.2995 59.11C91.0795 59.11 90.9028 59.05 90.7695 58.93C90.6428 58.8033 90.5795 58.6 90.5795 58.32C90.3461 58.6 90.0728 58.8033 89.7595 58.93C89.4528 59.05 89.1195 59.11 88.7595 59.11C88.5261 59.11 88.3028 59.0833 88.0895 59.03C87.8828 58.9767 87.7028 58.8933 87.5495 58.78C87.3961 58.6667 87.2728 58.52 87.1795 58.34C87.0928 58.1533 87.0495 57.93 87.0495 57.67C87.0495 57.3767 87.0995 57.1367 87.1995 56.95C87.2995 56.7633 87.4295 56.6133 87.5895 56.5C87.7561 56.38 87.9428 56.29 88.1495 56.23C88.3628 56.17 88.5795 56.12 88.7995 56.08C89.0328 56.0333 89.2528 56 89.4595 55.98C89.6728 55.9533 89.8595 55.92 90.0195 55.88C90.1795 55.8333 90.3061 55.77 90.3995 55.69C90.4928 55.6033 90.5395 55.48 90.5395 55.32C90.5395 55.1333 90.5028 54.9833 90.4295 54.87C90.3628 54.7567 90.2728 54.67 90.1595 54.61C90.0528 54.55 89.9295 54.51 89.7895 54.49C89.6561 54.47 89.5228 54.46 89.3895 54.46C89.0295 54.46 88.7295 54.53 88.4895 54.67C88.2495 54.8033 88.1195 55.06 88.0995 55.44H87.2495C87.2628 55.12 87.3295 54.85 87.4495 54.63C87.5695 54.41 87.7295 54.2333 87.9295 54.1C88.1295 53.96 88.3561 53.86 88.6095 53.8C88.8695 53.74 89.1461 53.71 89.4395 53.71C89.6728 53.71 89.9028 53.7267 90.1295 53.76C90.3628 53.7933 90.5728 53.8633 90.7595 53.97C90.9461 54.07 91.0961 54.2133 91.2095 54.4C91.3228 54.5867 91.3795 54.83 91.3795 55.13V57.79C91.3795 57.99 91.3895 58.1367 91.4095 58.23C91.4361 58.3233 91.5161 58.37 91.6495 58.37C91.7228 58.37 91.8095 58.3533 91.9095 58.32V58.98ZM90.5295 56.33C90.4228 56.41 90.2828 56.47 90.1095 56.51C89.9361 56.5433 89.7528 56.5733 89.5595 56.6C89.3728 56.62 89.1828 56.6467 88.9895 56.68C88.7961 56.7067 88.6228 56.7533 88.4695 56.82C88.3161 56.8867 88.1895 56.9833 88.0895 57.11C87.9961 57.23 87.9495 57.3967 87.9495 57.61C87.9495 57.75 87.9761 57.87 88.0295 57.97C88.0895 58.0633 88.1628 58.14 88.2495 58.2C88.3428 58.26 88.4495 58.3033 88.5695 58.33C88.6895 58.3567 88.8161 58.37 88.9495 58.37C89.2295 58.37 89.4695 58.3333 89.6695 58.26C89.8695 58.18 90.0328 58.0833 90.1595 57.97C90.2861 57.85 90.3795 57.7233 90.4395 57.59C90.4995 57.45 90.5295 57.32 90.5295 57.2V56.33ZM90.1795 52.17C90.3261 52.17 90.4395 52.1233 90.5195 52.03C90.6061 51.93 90.6595 51.7933 90.6795 51.62H91.1695C91.1028 52.0867 90.9761 52.4067 90.7895 52.58C90.6095 52.7467 90.3895 52.83 90.1295 52.83C89.9961 52.83 89.8695 52.8033 89.7495 52.75C89.6295 52.6967 89.5095 52.6367 89.3895 52.57C89.2695 52.5033 89.1495 52.4433 89.0295 52.39C88.9161 52.3367 88.7995 52.31 88.6795 52.31C88.3728 52.31 88.1895 52.48 88.1295 52.82H87.6595C87.7261 52.4133 87.8428 52.1167 88.0095 51.93C88.1828 51.7433 88.4095 51.65 88.6895 51.65C88.8228 51.65 88.9528 51.6767 89.0795 51.73C89.2061 51.7833 89.3295 51.8433 89.4495 51.91C89.5695 51.9767 89.6895 52.0367 89.8095 52.09C89.9361 52.1433 90.0595 52.17 90.1795 52.17ZM93.3205 56.42C93.3205 56.7333 93.3605 57.0133 93.4405 57.26C93.5272 57.5 93.6439 57.7033 93.7905 57.87C93.9372 58.03 94.1072 58.1533 94.3005 58.24C94.5005 58.3267 94.7105 58.37 94.9305 58.37C95.1505 58.37 95.3572 58.3267 95.5505 58.24C95.7505 58.1533 95.9239 58.03 96.0705 57.87C96.2172 57.7033 96.3305 57.5 96.4105 57.26C96.4972 57.0133 96.5405 56.7333 96.5405 56.42C96.5405 56.1067 96.4972 55.83 96.4105 55.59C96.3305 55.3433 96.2172 55.1367 96.0705 54.97C95.9239 54.8033 95.7505 54.6767 95.5505 54.59C95.3572 54.5033 95.1505 54.46 94.9305 54.46C94.7105 54.46 94.5005 54.5033 94.3005 54.59C94.1072 54.6767 93.9372 54.8033 93.7905 54.97C93.6439 55.1367 93.5272 55.3433 93.4405 55.59C93.3605 55.83 93.3205 56.1067 93.3205 56.42ZM92.4205 56.42C92.4205 56.04 92.4739 55.6867 92.5805 55.36C92.6872 55.0267 92.8472 54.74 93.0605 54.5C93.2739 54.2533 93.5372 54.06 93.8505 53.92C94.1639 53.78 94.5239 53.71 94.9305 53.71C95.3439 53.71 95.7039 53.78 96.0105 53.92C96.3239 54.06 96.5872 54.2533 96.8005 54.5C97.0139 54.74 97.1739 55.0267 97.2805 55.36C97.3872 55.6867 97.4405 56.04 97.4405 56.42C97.4405 56.8 97.3872 57.1533 97.2805 57.48C97.1739 57.8067 97.0139 58.0933 96.8005 58.34C96.5872 58.58 96.3239 58.77 96.0105 58.91C95.7039 59.0433 95.3439 59.11 94.9305 59.11C94.5239 59.11 94.1639 59.0433 93.8505 58.91C93.5372 58.77 93.2739 58.58 93.0605 58.34C92.8472 58.0933 92.6872 57.8067 92.5805 57.48C92.4739 57.1533 92.4205 56.8 92.4205 56.42ZM104.816 55.92C104.803 55.72 104.756 55.53 104.676 55.35C104.603 55.17 104.499 55.0167 104.366 54.89C104.239 54.7567 104.086 54.6533 103.906 54.58C103.733 54.5 103.539 54.46 103.326 54.46C103.106 54.46 102.906 54.5 102.726 54.58C102.553 54.6533 102.403 54.7567 102.276 54.89C102.149 55.0233 102.049 55.18 101.976 55.36C101.903 55.5333 101.859 55.72 101.846 55.92H104.816ZM105.636 57.36C105.523 57.94 105.273 58.3767 104.886 58.67C104.499 58.9633 104.013 59.11 103.426 59.11C103.013 59.11 102.653 59.0433 102.346 58.91C102.046 58.7767 101.793 58.59 101.586 58.35C101.379 58.11 101.223 57.8233 101.116 57.49C101.016 57.1567 100.959 56.7933 100.946 56.4C100.946 56.0067 101.006 55.6467 101.126 55.32C101.246 54.9933 101.413 54.71 101.626 54.47C101.846 54.23 102.103 54.0433 102.396 53.91C102.696 53.7767 103.023 53.71 103.376 53.71C103.836 53.71 104.216 53.8067 104.516 54C104.823 54.1867 105.066 54.4267 105.246 54.72C105.433 55.0133 105.559 55.3333 105.626 55.68C105.699 56.0267 105.729 56.3567 105.716 56.67H101.846C101.839 56.8967 101.866 57.1133 101.926 57.32C101.986 57.52 102.083 57.7 102.216 57.86C102.349 58.0133 102.519 58.1367 102.726 58.23C102.933 58.3233 103.176 58.37 103.456 58.37C103.816 58.37 104.109 58.2867 104.336 58.12C104.569 57.9533 104.723 57.7 104.796 57.36H105.636ZM110.75 56.05H113.17L111.98 52.72H111.96L110.75 56.05ZM111.46 51.86H112.51L115.3 59H114.25L113.47 56.85H110.45L109.65 59H108.68L111.46 51.86ZM116.385 57.37C116.391 57.5567 116.435 57.7167 116.515 57.85C116.595 57.9767 116.698 58.08 116.825 58.16C116.958 58.2333 117.105 58.2867 117.265 58.32C117.431 58.3533 117.601 58.37 117.775 58.37C117.908 58.37 118.048 58.36 118.195 58.34C118.341 58.32 118.475 58.2833 118.595 58.23C118.721 58.1767 118.825 58.1 118.905 58C118.985 57.8933 119.025 57.76 119.025 57.6C119.025 57.38 118.941 57.2133 118.775 57.1C118.608 56.9867 118.398 56.8967 118.145 56.83C117.898 56.7567 117.628 56.6933 117.335 56.64C117.041 56.58 116.768 56.5 116.515 56.4C116.268 56.2933 116.061 56.1467 115.895 55.96C115.728 55.7733 115.645 55.5133 115.645 55.18C115.645 54.92 115.701 54.6967 115.815 54.51C115.935 54.3233 116.085 54.1733 116.265 54.06C116.451 53.94 116.658 53.8533 116.885 53.8C117.118 53.74 117.348 53.71 117.575 53.71C117.868 53.71 118.138 53.7367 118.385 53.79C118.631 53.8367 118.848 53.9233 119.035 54.05C119.228 54.17 119.381 54.3367 119.495 54.55C119.608 54.7567 119.675 55.0167 119.695 55.33H118.845C118.831 55.1633 118.788 55.0267 118.715 54.92C118.641 54.8067 118.548 54.7167 118.435 54.65C118.321 54.5833 118.195 54.5367 118.055 54.51C117.921 54.4767 117.785 54.46 117.645 54.46C117.518 54.46 117.388 54.47 117.255 54.49C117.128 54.51 117.011 54.5467 116.905 54.6C116.798 54.6467 116.711 54.7133 116.645 54.8C116.578 54.88 116.545 54.9867 116.545 55.12C116.545 55.2667 116.595 55.39 116.695 55.49C116.801 55.5833 116.935 55.6633 117.095 55.73C117.255 55.79 117.435 55.8433 117.635 55.89C117.835 55.93 118.035 55.9733 118.235 56.02C118.448 56.0667 118.655 56.1233 118.855 56.19C119.061 56.2567 119.241 56.3467 119.395 56.46C119.555 56.5667 119.681 56.7033 119.775 56.87C119.875 57.0367 119.925 57.2433 119.925 57.49C119.925 57.8033 119.858 58.0633 119.725 58.27C119.598 58.4767 119.428 58.6433 119.215 58.77C119.008 58.8967 118.771 58.9833 118.505 59.03C118.245 59.0833 117.985 59.11 117.725 59.11C117.438 59.11 117.165 59.08 116.905 59.02C116.645 58.96 116.415 58.8633 116.215 58.73C116.015 58.59 115.855 58.41 115.735 58.19C115.615 57.9633 115.548 57.69 115.535 57.37H116.385ZM121.385 57.37C121.391 57.5567 121.435 57.7167 121.515 57.85C121.595 57.9767 121.698 58.08 121.825 58.16C121.958 58.2333 122.105 58.2867 122.265 58.32C122.431 58.3533 122.601 58.37 122.775 58.37C122.908 58.37 123.048 58.36 123.195 58.34C123.341 58.32 123.475 58.2833 123.595 58.23C123.721 58.1767 123.825 58.1 123.905 58C123.985 57.8933 124.025 57.76 124.025 57.6C124.025 57.38 123.941 57.2133 123.775 57.1C123.608 56.9867 123.398 56.8967 123.145 56.83C122.898 56.7567 122.628 56.6933 122.335 56.64C122.041 56.58 121.768 56.5 121.515 56.4C121.268 56.2933 121.061 56.1467 120.895 55.96C120.728 55.7733 120.645 55.5133 120.645 55.18C120.645 54.92 120.701 54.6967 120.815 54.51C120.935 54.3233 121.085 54.1733 121.265 54.06C121.451 53.94 121.658 53.8533 121.885 53.8C122.118 53.74 122.348 53.71 122.575 53.71C122.868 53.71 123.138 53.7367 123.385 53.79C123.631 53.8367 123.848 53.9233 124.035 54.05C124.228 54.17 124.381 54.3367 124.495 54.55C124.608 54.7567 124.675 55.0167 124.695 55.33H123.845C123.831 55.1633 123.788 55.0267 123.715 54.92C123.641 54.8067 123.548 54.7167 123.435 54.65C123.321 54.5833 123.195 54.5367 123.055 54.51C122.921 54.4767 122.785 54.46 122.645 54.46C122.518 54.46 122.388 54.47 122.255 54.49C122.128 54.51 122.011 54.5467 121.905 54.6C121.798 54.6467 121.711 54.7133 121.645 54.8C121.578 54.88 121.545 54.9867 121.545 55.12C121.545 55.2667 121.595 55.39 121.695 55.49C121.801 55.5833 121.935 55.6633 122.095 55.73C122.255 55.79 122.435 55.8433 122.635 55.89C122.835 55.93 123.035 55.9733 123.235 56.02C123.448 56.0667 123.655 56.1233 123.855 56.19C124.061 56.2567 124.241 56.3467 124.395 56.46C124.555 56.5667 124.681 56.7033 124.775 56.87C124.875 57.0367 124.925 57.2433 124.925 57.49C124.925 57.8033 124.858 58.0633 124.725 58.27C124.598 58.4767 124.428 58.6433 124.215 58.77C124.008 58.8967 123.771 58.9833 123.505 59.03C123.245 59.0833 122.985 59.11 122.725 59.11C122.438 59.11 122.165 59.08 121.905 59.02C121.645 58.96 121.415 58.8633 121.215 58.73C121.015 58.59 120.855 58.41 120.735 58.19C120.615 57.9633 120.548 57.69 120.535 57.37H121.385ZM126.765 52.9H125.915V51.86H126.765V52.9ZM125.915 53.83H126.765V59H125.915V53.83ZM128.601 57.37C128.608 57.5567 128.651 57.7167 128.731 57.85C128.811 57.9767 128.915 58.08 129.041 58.16C129.175 58.2333 129.321 58.2867 129.481 58.32C129.648 58.3533 129.818 58.37 129.991 58.37C130.125 58.37 130.265 58.36 130.411 58.34C130.558 58.32 130.691 58.2833 130.811 58.23C130.938 58.1767 131.041 58.1 131.121 58C131.201 57.8933 131.241 57.76 131.241 57.6C131.241 57.38 131.158 57.2133 130.991 57.1C130.825 56.9867 130.615 56.8967 130.361 56.83C130.115 56.7567 129.845 56.6933 129.551 56.64C129.258 56.58 128.985 56.5 128.731 56.4C128.485 56.2933 128.278 56.1467 128.111 55.96C127.945 55.7733 127.861 55.5133 127.861 55.18C127.861 54.92 127.918 54.6967 128.031 54.51C128.151 54.3233 128.301 54.1733 128.481 54.06C128.668 53.94 128.875 53.8533 129.101 53.8C129.335 53.74 129.565 53.71 129.791 53.71C130.085 53.71 130.355 53.7367 130.601 53.79C130.848 53.8367 131.065 53.9233 131.251 54.05C131.445 54.17 131.598 54.3367 131.711 54.55C131.825 54.7567 131.891 55.0167 131.911 55.33H131.061C131.048 55.1633 131.005 55.0267 130.931 54.92C130.858 54.8067 130.765 54.7167 130.651 54.65C130.538 54.5833 130.411 54.5367 130.271 54.51C130.138 54.4767 130.001 54.46 129.861 54.46C129.735 54.46 129.605 54.47 129.471 54.49C129.345 54.51 129.228 54.5467 129.121 54.6C129.015 54.6467 128.928 54.7133 128.861 54.8C128.795 54.88 128.761 54.9867 128.761 55.12C128.761 55.2667 128.811 55.39 128.911 55.49C129.018 55.5833 129.151 55.6633 129.311 55.73C129.471 55.79 129.651 55.8433 129.851 55.89C130.051 55.93 130.251 55.9733 130.451 56.02C130.665 56.0667 130.871 56.1233 131.071 56.19C131.278 56.2567 131.458 56.3467 131.611 56.46C131.771 56.5667 131.898 56.7033 131.991 56.87C132.091 57.0367 132.141 57.2433 132.141 57.49C132.141 57.8033 132.075 58.0633 131.941 58.27C131.815 58.4767 131.645 58.6433 131.431 58.77C131.225 58.8967 130.988 58.9833 130.721 59.03C130.461 59.0833 130.201 59.11 129.941 59.11C129.655 59.11 129.381 59.08 129.121 59.02C128.861 58.96 128.631 58.8633 128.431 58.73C128.231 58.59 128.071 58.41 127.951 58.19C127.831 57.9633 127.765 57.69 127.751 57.37H128.601ZM134.261 53.83H135.291V54.58H134.261V57.79C134.261 57.89 134.268 57.97 134.281 58.03C134.301 58.09 134.335 58.1367 134.381 58.17C134.428 58.2033 134.491 58.2267 134.571 58.24C134.658 58.2467 134.768 58.25 134.901 58.25H135.291V59H134.641C134.421 59 134.231 58.9867 134.071 58.96C133.918 58.9267 133.791 58.87 133.691 58.79C133.598 58.71 133.528 58.5967 133.481 58.45C133.435 58.3033 133.411 58.11 133.411 57.87V54.58H132.531V53.83H133.411V52.28H134.261V53.83ZM139.826 55.92C139.812 55.72 139.766 55.53 139.686 55.35C139.612 55.17 139.509 55.0167 139.376 54.89C139.249 54.7567 139.096 54.6533 138.916 54.58C138.742 54.5 138.549 54.46 138.336 54.46C138.116 54.46 137.916 54.5 137.736 54.58C137.562 54.6533 137.412 54.7567 137.286 54.89C137.159 55.0233 137.059 55.18 136.986 55.36C136.912 55.5333 136.869 55.72 136.856 55.92H139.826ZM140.646 57.36C140.532 57.94 140.282 58.3767 139.896 58.67C139.509 58.9633 139.022 59.11 138.436 59.11C138.022 59.11 137.662 59.0433 137.356 58.91C137.056 58.7767 136.802 58.59 136.596 58.35C136.389 58.11 136.232 57.8233 136.126 57.49C136.026 57.1567 135.969 56.7933 135.956 56.4C135.956 56.0067 136.016 55.6467 136.136 55.32C136.256 54.9933 136.422 54.71 136.636 54.47C136.856 54.23 137.112 54.0433 137.406 53.91C137.706 53.7767 138.032 53.71 138.386 53.71C138.846 53.71 139.226 53.8067 139.526 54C139.832 54.1867 140.076 54.4267 140.256 54.72C140.442 55.0133 140.569 55.3333 140.636 55.68C140.709 56.0267 140.739 56.3567 140.726 56.67H136.856C136.849 56.8967 136.876 57.1133 136.936 57.32C136.996 57.52 137.092 57.7 137.226 57.86C137.359 58.0133 137.529 58.1367 137.736 58.23C137.942 58.3233 138.186 58.37 138.466 58.37C138.826 58.37 139.119 58.2867 139.346 58.12C139.579 57.9533 139.732 57.7 139.806 57.36H140.646ZM138.746 51.49H137.816L136.796 52.92H137.556L138.256 51.96L138.946 52.92H139.786L138.746 51.49ZM141.607 53.83H142.407V54.65H142.427C142.78 54.0233 143.34 53.71 144.107 53.71C144.447 53.71 144.73 53.7567 144.957 53.85C145.183 53.9433 145.367 54.0733 145.507 54.24C145.647 54.4067 145.743 54.6067 145.797 54.84C145.857 55.0667 145.887 55.32 145.887 55.6V59H145.037V55.5C145.037 55.18 144.943 54.9267 144.757 54.74C144.57 54.5533 144.313 54.46 143.987 54.46C143.727 54.46 143.5 54.5 143.307 54.58C143.12 54.66 142.963 54.7733 142.837 54.92C142.71 55.0667 142.613 55.24 142.547 55.44C142.487 55.6333 142.457 55.8467 142.457 56.08V59H141.607V53.83ZM150.673 55.49C150.607 55.1633 150.467 54.91 150.253 54.73C150.04 54.55 149.753 54.46 149.393 54.46C149.087 54.46 148.83 54.5167 148.623 54.63C148.417 54.7433 148.25 54.8933 148.123 55.08C148.003 55.2667 147.917 55.4833 147.863 55.73C147.81 55.97 147.783 56.22 147.783 56.48C147.783 56.72 147.81 56.9533 147.863 57.18C147.923 57.4067 148.013 57.61 148.133 57.79C148.253 57.9633 148.41 58.1033 148.603 58.21C148.797 58.3167 149.027 58.37 149.293 58.37C149.713 58.37 150.04 58.26 150.273 58.04C150.513 57.82 150.66 57.51 150.713 57.11H151.583C151.49 57.75 151.25 58.2433 150.863 58.59C150.483 58.9367 149.963 59.11 149.303 59.11C148.91 59.11 148.56 59.0467 148.253 58.92C147.953 58.7933 147.7 58.6133 147.493 58.38C147.293 58.1467 147.14 57.87 147.033 57.55C146.933 57.2233 146.883 56.8667 146.883 56.48C146.883 56.0933 146.933 55.7333 147.033 55.4C147.133 55.06 147.283 54.7667 147.483 54.52C147.69 54.2667 147.947 54.07 148.253 53.93C148.56 53.7833 148.917 53.71 149.323 53.71C149.617 53.71 149.89 53.7467 150.143 53.82C150.403 53.8867 150.63 53.9933 150.823 54.14C151.023 54.2867 151.187 54.4733 151.313 54.7C151.44 54.92 151.52 55.1833 151.553 55.49H150.673ZM153.435 52.9H152.585V51.86H153.435V52.9ZM152.585 53.83H153.435V59H152.585V53.83ZM159.331 58.98C159.185 59.0667 158.981 59.11 158.721 59.11C158.501 59.11 158.325 59.05 158.191 58.93C158.065 58.8033 158.001 58.6 158.001 58.32C157.768 58.6 157.495 58.8033 157.181 58.93C156.875 59.05 156.541 59.11 156.181 59.11C155.948 59.11 155.725 59.0833 155.511 59.03C155.305 58.9767 155.125 58.8933 154.971 58.78C154.818 58.6667 154.695 58.52 154.601 58.34C154.515 58.1533 154.471 57.93 154.471 57.67C154.471 57.3767 154.521 57.1367 154.621 56.95C154.721 56.7633 154.851 56.6133 155.011 56.5C155.178 56.38 155.365 56.29 155.571 56.23C155.785 56.17 156.001 56.12 156.221 56.08C156.455 56.0333 156.675 56 156.881 55.98C157.095 55.9533 157.281 55.92 157.441 55.88C157.601 55.8333 157.728 55.77 157.821 55.69C157.915 55.6033 157.961 55.48 157.961 55.32C157.961 55.1333 157.925 54.9833 157.851 54.87C157.785 54.7567 157.695 54.67 157.581 54.61C157.475 54.55 157.351 54.51 157.211 54.49C157.078 54.47 156.945 54.46 156.811 54.46C156.451 54.46 156.151 54.53 155.911 54.67C155.671 54.8033 155.541 55.06 155.521 55.44H154.671C154.685 55.12 154.751 54.85 154.871 54.63C154.991 54.41 155.151 54.2333 155.351 54.1C155.551 53.96 155.778 53.86 156.031 53.8C156.291 53.74 156.568 53.71 156.861 53.71C157.095 53.71 157.325 53.7267 157.551 53.76C157.785 53.7933 157.995 53.8633 158.181 53.97C158.368 54.07 158.518 54.2133 158.631 54.4C158.745 54.5867 158.801 54.83 158.801 55.13V57.79C158.801 57.99 158.811 58.1367 158.831 58.23C158.858 58.3233 158.938 58.37 159.071 58.37C159.145 58.37 159.231 58.3533 159.331 58.32V58.98ZM157.951 56.33C157.845 56.41 157.705 56.47 157.531 56.51C157.358 56.5433 157.175 56.5733 156.981 56.6C156.795 56.62 156.605 56.6467 156.411 56.68C156.218 56.7067 156.045 56.7533 155.891 56.82C155.738 56.8867 155.611 56.9833 155.511 57.11C155.418 57.23 155.371 57.3967 155.371 57.61C155.371 57.75 155.398 57.87 155.451 57.97C155.511 58.0633 155.585 58.14 155.671 58.2C155.765 58.26 155.871 58.3033 155.991 58.33C156.111 58.3567 156.238 58.37 156.371 58.37C156.651 58.37 156.891 58.3333 157.091 58.26C157.291 58.18 157.455 58.0833 157.581 57.97C157.708 57.85 157.801 57.7233 157.861 57.59C157.921 57.45 157.951 57.32 157.951 57.2V56.33ZM1.26 68.46C1.26 68.7 1.29 68.9367 1.35 69.17C1.41667 69.3967 1.51333 69.6 1.64 69.78C1.77333 69.96 1.94 70.1033 2.14 70.21C2.34667 70.3167 2.58667 70.37 2.86 70.37C3.14667 70.37 3.39 70.3133 3.59 70.2C3.79 70.0867 3.95333 69.94 4.08 69.76C4.20667 69.5733 4.29667 69.3633 4.35 69.13C4.41 68.8967 4.44 68.66 4.44 68.42C4.44 68.1667 4.41 67.9233 4.35 67.69C4.29 67.45 4.19333 67.24 4.06 67.06C3.93333 66.88 3.76667 66.7367 3.56 66.63C3.35333 66.5167 3.10333 66.46 2.81 66.46C2.52333 66.46 2.28 66.5167 2.08 66.63C1.88 66.7433 1.72 66.8933 1.6 67.08C1.48 67.2667 1.39333 67.48 1.34 67.72C1.28667 67.96 1.26 68.2067 1.26 68.46ZM5.26 71H4.41V70.3H4.39C4.25 70.5867 4.03 70.7933 3.73 70.92C3.43 71.0467 3.1 71.11 2.74 71.11C2.34 71.11 1.99 71.0367 1.69 70.89C1.39667 70.7433 1.15 70.5467 0.95 70.3C0.756667 70.0533 0.61 69.7667 0.51 69.44C0.41 69.1133 0.36 68.7667 0.36 68.4C0.36 68.0333 0.406667 67.6867 0.5 67.36C0.6 67.0333 0.746667 66.75 0.94 66.51C1.14 66.2633 1.38667 66.07 1.68 65.93C1.98 65.7833 2.32667 65.71 2.72 65.71C2.85333 65.71 2.99667 65.7233 3.15 65.75C3.30333 65.7767 3.45667 65.8233 3.61 65.89C3.76333 65.95 3.90667 66.0333 4.04 66.14C4.18 66.24 4.29667 66.3667 4.39 66.52H4.41V63.86H5.26V71ZM10.1577 67.92C10.1444 67.72 10.0977 67.53 10.0177 67.35C9.9444 67.17 9.84107 67.0167 9.70773 66.89C9.58107 66.7567 9.42773 66.6533 9.24773 66.58C9.0744 66.5 8.88107 66.46 8.66773 66.46C8.44773 66.46 8.24773 66.5 8.06773 66.58C7.8944 66.6533 7.7444 66.7567 7.61773 66.89C7.49107 67.0233 7.39107 67.18 7.31773 67.36C7.2444 67.5333 7.20107 67.72 7.18773 67.92H10.1577ZM10.9777 69.36C10.8644 69.94 10.6144 70.3767 10.2277 70.67C9.84107 70.9633 9.3544 71.11 8.76773 71.11C8.3544 71.11 7.9944 71.0433 7.68773 70.91C7.38773 70.7767 7.1344 70.59 6.92773 70.35C6.72107 70.11 6.5644 69.8233 6.45773 69.49C6.35773 69.1567 6.30107 68.7933 6.28773 68.4C6.28773 68.0067 6.34773 67.6467 6.46773 67.32C6.58773 66.9933 6.7544 66.71 6.96773 66.47C7.18773 66.23 7.4444 66.0433 7.73773 65.91C8.03773 65.7767 8.3644 65.71 8.71773 65.71C9.17773 65.71 9.55773 65.8067 9.85773 66C10.1644 66.1867 10.4077 66.4267 10.5877 66.72C10.7744 67.0133 10.9011 67.3333 10.9677 67.68C11.0411 68.0267 11.0711 68.3567 11.0577 68.67H7.18773C7.18107 68.8967 7.20773 69.1133 7.26773 69.32C7.32773 69.52 7.4244 69.7 7.55773 69.86C7.69107 70.0133 7.86107 70.1367 8.06773 70.23C8.2744 70.3233 8.51773 70.37 8.79773 70.37C9.15773 70.37 9.45107 70.2867 9.67773 70.12C9.91107 69.9533 10.0644 69.7 10.1377 69.36H10.9777ZM15.812 70.2H17.392C17.4987 70.2 17.632 70.1933 17.792 70.18C17.952 70.16 18.122 70.12 18.302 70.06C18.482 69.9933 18.6587 69.9 18.832 69.78C19.012 69.66 19.172 69.4967 19.312 69.29C19.452 69.0833 19.5654 68.8267 19.652 68.52C19.7454 68.2067 19.792 67.83 19.792 67.39C19.792 66.9633 19.7487 66.5833 19.662 66.25C19.582 65.91 19.4454 65.6233 19.252 65.39C19.0654 65.15 18.822 64.97 18.522 64.85C18.222 64.7233 17.852 64.66 17.412 64.66H15.812V70.2ZM14.862 63.86H17.312C18.412 63.86 19.2587 64.14 19.852 64.7C20.4454 65.26 20.742 66.1133 20.742 67.26C20.742 67.86 20.6754 68.3933 20.542 68.86C20.4087 69.32 20.202 69.71 19.922 70.03C19.642 70.3433 19.2854 70.5833 18.852 70.75C18.4187 70.9167 17.9054 71 17.312 71H14.862V63.86ZM22.383 68.42C22.383 68.7333 22.423 69.0133 22.503 69.26C22.5897 69.5 22.7064 69.7033 22.853 69.87C22.9997 70.03 23.1697 70.1533 23.363 70.24C23.563 70.3267 23.773 70.37 23.993 70.37C24.213 70.37 24.4197 70.3267 24.613 70.24C24.813 70.1533 24.9864 70.03 25.133 69.87C25.2797 69.7033 25.393 69.5 25.473 69.26C25.5597 69.0133 25.603 68.7333 25.603 68.42C25.603 68.1067 25.5597 67.83 25.473 67.59C25.393 67.3433 25.2797 67.1367 25.133 66.97C24.9864 66.8033 24.813 66.6767 24.613 66.59C24.4197 66.5033 24.213 66.46 23.993 66.46C23.773 66.46 23.563 66.5033 23.363 66.59C23.1697 66.6767 22.9997 66.8033 22.853 66.97C22.7064 67.1367 22.5897 67.3433 22.503 67.59C22.423 67.83 22.383 68.1067 22.383 68.42ZM21.483 68.42C21.483 68.04 21.5364 67.6867 21.643 67.36C21.7497 67.0267 21.9097 66.74 22.123 66.5C22.3364 66.2533 22.5997 66.06 22.913 65.92C23.2264 65.78 23.5864 65.71 23.993 65.71C24.4064 65.71 24.7664 65.78 25.073 65.92C25.3864 66.06 25.6497 66.2533 25.863 66.5C26.0764 66.74 26.2364 67.0267 26.343 67.36C26.4497 67.6867 26.503 68.04 26.503 68.42C26.503 68.8 26.4497 69.1533 26.343 69.48C26.2364 69.8067 26.0764 70.0933 25.863 70.34C25.6497 70.58 25.3864 70.77 25.073 70.91C24.7664 71.0433 24.4064 71.11 23.993 71.11C23.5864 71.11 23.2264 71.0433 22.913 70.91C22.5997 70.77 22.3364 70.58 22.123 70.34C21.9097 70.0933 21.7497 69.8067 21.643 69.48C21.5364 69.1533 21.483 68.8 21.483 68.42ZM31.0952 67.92C31.0819 67.72 31.0352 67.53 30.9552 67.35C30.8819 67.17 30.7786 67.0167 30.6452 66.89C30.5186 66.7567 30.3652 66.6533 30.1852 66.58C30.0119 66.5 29.8186 66.46 29.6052 66.46C29.3852 66.46 29.1852 66.5 29.0052 66.58C28.8319 66.6533 28.6819 66.7567 28.5552 66.89C28.4286 67.0233 28.3286 67.18 28.2552 67.36C28.1819 67.5333 28.1386 67.72 28.1252 67.92H31.0952ZM31.9152 69.36C31.8019 69.94 31.5519 70.3767 31.1652 70.67C30.7786 70.9633 30.2919 71.11 29.7052 71.11C29.2919 71.11 28.9319 71.0433 28.6252 70.91C28.3252 70.7767 28.0719 70.59 27.8652 70.35C27.6586 70.11 27.5019 69.8233 27.3952 69.49C27.2952 69.1567 27.2386 68.7933 27.2252 68.4C27.2252 68.0067 27.2852 67.6467 27.4052 67.32C27.5252 66.9933 27.6919 66.71 27.9052 66.47C28.1252 66.23 28.3819 66.0433 28.6752 65.91C28.9752 65.7767 29.3019 65.71 29.6552 65.71C30.1152 65.71 30.4952 65.8067 30.7952 66C31.1019 66.1867 31.3452 66.4267 31.5252 66.72C31.7119 67.0133 31.8386 67.3333 31.9052 67.68C31.9786 68.0267 32.0086 68.3567 31.9952 68.67H28.1252C28.1186 68.8967 28.1452 69.1133 28.2052 69.32C28.2652 69.52 28.3619 69.7 28.4952 69.86C28.6286 70.0133 28.7986 70.1367 29.0052 70.23C29.2119 70.3233 29.4552 70.37 29.7352 70.37C30.0952 70.37 30.3886 70.2867 30.6152 70.12C30.8486 69.9533 31.0019 69.7 31.0752 69.36H31.9152ZM32.8763 65.83H33.6763V66.65H33.6963C34.0497 66.0233 34.6097 65.71 35.3763 65.71C35.7163 65.71 35.9997 65.7567 36.2263 65.85C36.453 65.9433 36.6363 66.0733 36.7763 66.24C36.9163 66.4067 37.013 66.6067 37.0663 66.84C37.1263 67.0667 37.1563 67.32 37.1563 67.6V71H36.3063V67.5C36.3063 67.18 36.213 66.9267 36.0263 66.74C35.8397 66.5533 35.583 66.46 35.2563 66.46C34.9963 66.46 34.7697 66.5 34.5763 66.58C34.3897 66.66 34.233 66.7733 34.1063 66.92C33.9797 67.0667 33.883 67.24 33.8163 67.44C33.7563 67.6333 33.7263 67.8467 33.7263 68.08V71H32.8763V65.83ZM39.613 65.83H40.643V66.58H39.613V69.79C39.613 69.89 39.6196 69.97 39.633 70.03C39.653 70.09 39.6863 70.1367 39.733 70.17C39.7796 70.2033 39.843 70.2267 39.923 70.24C40.0096 70.2467 40.1196 70.25 40.253 70.25H40.643V71H39.993C39.773 71 39.583 70.9867 39.423 70.96C39.2696 70.9267 39.143 70.87 39.043 70.79C38.9496 70.71 38.8796 70.5967 38.833 70.45C38.7863 70.3033 38.763 70.11 38.763 69.87V66.58H37.883V65.83H38.763V64.28H39.613V65.83ZM45.1773 67.92C45.1639 67.72 45.1173 67.53 45.0373 67.35C44.9639 67.17 44.8606 67.0167 44.7273 66.89C44.6006 66.7567 44.4473 66.6533 44.2673 66.58C44.0939 66.5 43.9006 66.46 43.6873 66.46C43.4673 66.46 43.2673 66.5 43.0873 66.58C42.9139 66.6533 42.7639 66.7567 42.6373 66.89C42.5106 67.0233 42.4106 67.18 42.3373 67.36C42.2639 67.5333 42.2206 67.72 42.2073 67.92H45.1773ZM45.9973 69.36C45.8839 69.94 45.6339 70.3767 45.2473 70.67C44.8606 70.9633 44.3739 71.11 43.7873 71.11C43.3739 71.11 43.0139 71.0433 42.7073 70.91C42.4073 70.7767 42.1539 70.59 41.9473 70.35C41.7406 70.11 41.5839 69.8233 41.4773 69.49C41.3773 69.1567 41.3206 68.7933 41.3073 68.4C41.3073 68.0067 41.3673 67.6467 41.4873 67.32C41.6073 66.9933 41.7739 66.71 41.9873 66.47C42.2073 66.23 42.4639 66.0433 42.7573 65.91C43.0573 65.7767 43.3839 65.71 43.7373 65.71C44.1973 65.71 44.5773 65.8067 44.8773 66C45.1839 66.1867 45.4273 66.4267 45.6073 66.72C45.7939 67.0133 45.9206 67.3333 45.9873 67.68C46.0606 68.0267 46.0906 68.3567 46.0773 68.67H42.2073C42.2006 68.8967 42.2273 69.1133 42.2873 69.32C42.3473 69.52 42.4439 69.7 42.5773 69.86C42.7106 70.0133 42.8806 70.1367 43.0873 70.23C43.2939 70.3233 43.5373 70.37 43.8173 70.37C44.1773 70.37 44.4706 70.2867 44.6973 70.12C44.9306 69.9533 45.0839 69.7 45.1573 69.36H45.9973ZM47.4784 69.37C47.485 69.5567 47.5284 69.7167 47.6084 69.85C47.6884 69.9767 47.7917 70.08 47.9184 70.16C48.0517 70.2333 48.1984 70.2867 48.3584 70.32C48.525 70.3533 48.695 70.37 48.8684 70.37C49.0017 70.37 49.1417 70.36 49.2884 70.34C49.435 70.32 49.5684 70.2833 49.6884 70.23C49.815 70.1767 49.9184 70.1 49.9984 70C50.0784 69.8933 50.1184 69.76 50.1184 69.6C50.1184 69.38 50.035 69.2133 49.8684 69.1C49.7017 68.9867 49.4917 68.8967 49.2384 68.83C48.9917 68.7567 48.7217 68.6933 48.4284 68.64C48.135 68.58 47.8617 68.5 47.6084 68.4C47.3617 68.2933 47.155 68.1467 46.9884 67.96C46.8217 67.7733 46.7384 67.5133 46.7384 67.18C46.7384 66.92 46.795 66.6967 46.9084 66.51C47.0284 66.3233 47.1784 66.1733 47.3584 66.06C47.545 65.94 47.7517 65.8533 47.9784 65.8C48.2117 65.74 48.4417 65.71 48.6684 65.71C48.9617 65.71 49.2317 65.7367 49.4784 65.79C49.725 65.8367 49.9417 65.9233 50.1284 66.05C50.3217 66.17 50.475 66.3367 50.5884 66.55C50.7017 66.7567 50.7684 67.0167 50.7884 67.33H49.9384C49.925 67.1633 49.8817 67.0267 49.8084 66.92C49.735 66.8067 49.6417 66.7167 49.5284 66.65C49.415 66.5833 49.2884 66.5367 49.1484 66.51C49.015 66.4767 48.8784 66.46 48.7384 66.46C48.6117 66.46 48.4817 66.47 48.3484 66.49C48.2217 66.51 48.105 66.5467 47.9984 66.6C47.8917 66.6467 47.805 66.7133 47.7384 66.8C47.6717 66.88 47.6384 66.9867 47.6384 67.12C47.6384 67.2667 47.6884 67.39 47.7884 67.49C47.895 67.5833 48.0284 67.6633 48.1884 67.73C48.3484 67.79 48.5284 67.8433 48.7284 67.89C48.9284 67.93 49.1284 67.9733 49.3284 68.02C49.5417 68.0667 49.7484 68.1233 49.9484 68.19C50.155 68.2567 50.335 68.3467 50.4884 68.46C50.6484 68.5667 50.775 68.7033 50.8684 68.87C50.9684 69.0367 51.0184 69.2433 51.0184 69.49C51.0184 69.8033 50.9517 70.0633 50.8184 70.27C50.6917 70.4767 50.5217 70.6433 50.3084 70.77C50.1017 70.8967 49.865 70.9833 49.5984 71.03C49.3384 71.0833 49.0784 71.11 48.8184 71.11C48.5317 71.11 48.2584 71.08 47.9984 71.02C47.7384 70.96 47.5084 70.8633 47.3084 70.73C47.1084 70.59 46.9484 70.41 46.8284 70.19C46.7084 69.9633 46.6417 69.69 46.6284 69.37H47.4784ZM55.3616 68.46C55.3616 68.7 55.3916 68.9367 55.4516 69.17C55.5182 69.3967 55.6149 69.6 55.7416 69.78C55.8749 69.96 56.0416 70.1033 56.2416 70.21C56.4482 70.3167 56.6882 70.37 56.9616 70.37C57.2482 70.37 57.4916 70.3133 57.6916 70.2C57.8916 70.0867 58.0549 69.94 58.1816 69.76C58.3082 69.5733 58.3982 69.3633 58.4516 69.13C58.5116 68.8967 58.5416 68.66 58.5416 68.42C58.5416 68.1667 58.5116 67.9233 58.4516 67.69C58.3916 67.45 58.2949 67.24 58.1616 67.06C58.0349 66.88 57.8682 66.7367 57.6616 66.63C57.4549 66.5167 57.2049 66.46 56.9116 66.46C56.6249 66.46 56.3816 66.5167 56.1816 66.63C55.9816 66.7433 55.8216 66.8933 55.7016 67.08C55.5816 67.2667 55.4949 67.48 55.4416 67.72C55.3882 67.96 55.3616 68.2067 55.3616 68.46ZM59.3616 71H58.5116V70.3H58.4916C58.3516 70.5867 58.1316 70.7933 57.8316 70.92C57.5316 71.0467 57.2016 71.11 56.8416 71.11C56.4416 71.11 56.0916 71.0367 55.7916 70.89C55.4982 70.7433 55.2516 70.5467 55.0516 70.3C54.8582 70.0533 54.7116 69.7667 54.6116 69.44C54.5116 69.1133 54.4616 68.7667 54.4616 68.4C54.4616 68.0333 54.5082 67.6867 54.6016 67.36C54.7016 67.0333 54.8482 66.75 55.0416 66.51C55.2416 66.2633 55.4882 66.07 55.7816 65.93C56.0816 65.7833 56.4282 65.71 56.8216 65.71C56.9549 65.71 57.0982 65.7233 57.2516 65.75C57.4049 65.7767 57.5582 65.8233 57.7116 65.89C57.8649 65.95 58.0082 66.0333 58.1416 66.14C58.2816 66.24 58.3982 66.3667 58.4916 66.52H58.5116V63.86H59.3616V71ZM64.2593 67.92C64.246 67.72 64.1993 67.53 64.1193 67.35C64.046 67.17 63.9426 67.0167 63.8093 66.89C63.6826 66.7567 63.5293 66.6533 63.3493 66.58C63.176 66.5 62.9826 66.46 62.7693 66.46C62.5493 66.46 62.3493 66.5 62.1693 66.58C61.996 66.6533 61.846 66.7567 61.7193 66.89C61.5926 67.0233 61.4926 67.18 61.4193 67.36C61.346 67.5333 61.3026 67.72 61.2893 67.92H64.2593ZM65.0793 69.36C64.966 69.94 64.716 70.3767 64.3293 70.67C63.9426 70.9633 63.456 71.11 62.8693 71.11C62.456 71.11 62.096 71.0433 61.7893 70.91C61.4893 70.7767 61.236 70.59 61.0293 70.35C60.8226 70.11 60.666 69.8233 60.5593 69.49C60.4593 69.1567 60.4026 68.7933 60.3893 68.4C60.3893 68.0067 60.4493 67.6467 60.5693 67.32C60.6893 66.9933 60.856 66.71 61.0693 66.47C61.2893 66.23 61.546 66.0433 61.8393 65.91C62.1393 65.7767 62.466 65.71 62.8193 65.71C63.2793 65.71 63.6593 65.8067 63.9593 66C64.266 66.1867 64.5093 66.4267 64.6893 66.72C64.876 67.0133 65.0026 67.3333 65.0693 67.68C65.1426 68.0267 65.1726 68.3567 65.1593 68.67H61.2893C61.2826 68.8967 61.3093 69.1133 61.3693 69.32C61.4293 69.52 61.526 69.7 61.6593 69.86C61.7926 70.0133 61.9626 70.1367 62.1693 70.23C62.376 70.3233 62.6193 70.37 62.8993 70.37C63.2593 70.37 63.5526 70.2867 63.7793 70.12C64.0126 69.9533 64.166 69.7 64.2393 69.36H65.0793ZM70.1936 68.05H72.6136L71.4236 64.72H71.4036L70.1936 68.05ZM70.9036 63.86H71.9536L74.7436 71H73.6936L72.9136 68.85H69.8936L69.0936 71H68.1236L70.9036 63.86ZM75.358 63.86H76.208V71H75.358V63.86ZM77.1048 70.35L80.2248 66.58H77.3048V65.83H81.3248V66.41L78.1648 70.25H81.4648V71H77.1048V70.35ZM82.3295 63.86H83.1795V66.59H83.1995C83.2661 66.43 83.3595 66.2967 83.4795 66.19C83.5995 66.0767 83.7328 65.9867 83.8795 65.92C84.0328 65.8467 84.1895 65.7933 84.3495 65.76C84.5161 65.7267 84.6761 65.71 84.8295 65.71C85.1695 65.71 85.4528 65.7567 85.6795 65.85C85.9061 65.9433 86.0895 66.0733 86.2295 66.24C86.3695 66.4067 86.4661 66.6067 86.5195 66.84C86.5795 67.0667 86.6095 67.32 86.6095 67.6V71H85.7595V67.5C85.7595 67.18 85.6661 66.9267 85.4795 66.74C85.2928 66.5533 85.0361 66.46 84.7095 66.46C84.4495 66.46 84.2228 66.5 84.0295 66.58C83.8428 66.66 83.6861 66.7733 83.5595 66.92C83.4328 67.0667 83.3361 67.24 83.2695 67.44C83.2095 67.6333 83.1795 67.8467 83.1795 68.08V71H82.3295V63.86ZM91.4761 67.92C91.4628 67.72 91.4161 67.53 91.3361 67.35C91.2628 67.17 91.1594 67.0167 91.0261 66.89C90.8994 66.7567 90.7461 66.6533 90.5661 66.58C90.3928 66.5 90.1994 66.46 89.9861 66.46C89.7661 66.46 89.5661 66.5 89.3861 66.58C89.2128 66.6533 89.0628 66.7567 88.9361 66.89C88.8094 67.0233 88.7094 67.18 88.6361 67.36C88.5628 67.5333 88.5194 67.72 88.5061 67.92H91.4761ZM92.2961 69.36C92.1828 69.94 91.9328 70.3767 91.5461 70.67C91.1594 70.9633 90.6728 71.11 90.0861 71.11C89.6728 71.11 89.3128 71.0433 89.0061 70.91C88.7061 70.7767 88.4528 70.59 88.2461 70.35C88.0394 70.11 87.8828 69.8233 87.7761 69.49C87.6761 69.1567 87.6194 68.7933 87.6061 68.4C87.6061 68.0067 87.6661 67.6467 87.7861 67.32C87.9061 66.9933 88.0728 66.71 88.2861 66.47C88.5061 66.23 88.7628 66.0433 89.0561 65.91C89.3561 65.7767 89.6828 65.71 90.0361 65.71C90.4961 65.71 90.8761 65.8067 91.1761 66C91.4828 66.1867 91.7261 66.4267 91.9061 66.72C92.0928 67.0133 92.2194 67.3333 92.2861 67.68C92.3594 68.0267 92.3894 68.3567 92.3761 68.67H88.5061C88.4994 68.8967 88.5261 69.1133 88.5861 69.32C88.6461 69.52 88.7428 69.7 88.8761 69.86C89.0094 70.0133 89.1794 70.1367 89.3861 70.23C89.5928 70.3233 89.8361 70.37 90.1161 70.37C90.4761 70.37 90.7694 70.2867 90.9961 70.12C91.2294 69.9533 91.3828 69.7 91.4561 69.36H92.2961ZM94.1572 64.9H93.3072V63.86H94.1572V64.9ZM93.3072 65.83H94.1572V71H93.3072V65.83ZM95.474 65.83H96.274V66.59H96.294C96.6807 66.0033 97.2373 65.71 97.964 65.71C98.284 65.71 98.574 65.7767 98.834 65.91C99.094 66.0433 99.2773 66.27 99.384 66.59C99.5573 66.31 99.784 66.0933 100.064 65.94C100.351 65.7867 100.664 65.71 101.004 65.71C101.264 65.71 101.497 65.74 101.704 65.8C101.917 65.8533 102.097 65.94 102.244 66.06C102.397 66.18 102.514 66.3367 102.594 66.53C102.681 66.7167 102.724 66.9433 102.724 67.21V71H101.874V67.61C101.874 67.45 101.861 67.3 101.834 67.16C101.807 67.02 101.757 66.9 101.684 66.8C101.611 66.6933 101.507 66.61 101.374 66.55C101.247 66.49 101.081 66.46 100.874 66.46C100.454 66.46 100.124 66.58 99.884 66.82C99.644 67.06 99.524 67.38 99.524 67.78V71H98.674V67.61C98.674 67.4433 98.6573 67.29 98.624 67.15C98.5973 67.01 98.5473 66.89 98.474 66.79C98.4007 66.6833 98.3007 66.6033 98.174 66.55C98.054 66.49 97.8973 66.46 97.704 66.46C97.4573 66.46 97.244 66.51 97.064 66.61C96.8907 66.71 96.7473 66.83 96.634 66.97C96.5273 67.11 96.4473 67.2567 96.394 67.41C96.3473 67.5567 96.324 67.68 96.324 67.78V71H95.474V65.83ZM107.589 67.92C107.576 67.72 107.529 67.53 107.449 67.35C107.376 67.17 107.273 67.0167 107.139 66.89C107.013 66.7567 106.859 66.6533 106.679 66.58C106.506 66.5 106.313 66.46 106.099 66.46C105.879 66.46 105.679 66.5 105.499 66.58C105.326 66.6533 105.176 66.7567 105.049 66.89C104.923 67.0233 104.823 67.18 104.749 67.36C104.676 67.5333 104.633 67.72 104.619 67.92H107.589ZM108.409 69.36C108.296 69.94 108.046 70.3767 107.659 70.67C107.273 70.9633 106.786 71.11 106.199 71.11C105.786 71.11 105.426 71.0433 105.119 70.91C104.819 70.7767 104.566 70.59 104.359 70.35C104.153 70.11 103.996 69.8233 103.889 69.49C103.789 69.1567 103.733 68.7933 103.719 68.4C103.719 68.0067 103.779 67.6467 103.899 67.32C104.019 66.9933 104.186 66.71 104.399 66.47C104.619 66.23 104.876 66.0433 105.169 65.91C105.469 65.7767 105.796 65.71 106.149 65.71C106.609 65.71 106.989 65.8067 107.289 66C107.596 66.1867 107.839 66.4267 108.019 66.72C108.206 67.0133 108.333 67.3333 108.399 67.68C108.473 68.0267 108.503 68.3567 108.489 68.67H104.619C104.613 68.8967 104.639 69.1133 104.699 69.32C104.759 69.52 104.856 69.7 104.989 69.86C105.123 70.0133 105.293 70.1367 105.499 70.23C105.706 70.3233 105.949 70.37 106.229 70.37C106.589 70.37 106.883 70.2867 107.109 70.12C107.343 69.9533 107.496 69.7 107.569 69.36H108.409ZM109.34 65.83H110.14V66.92H110.16C110.367 66.5 110.62 66.19 110.92 65.99C111.22 65.79 111.6 65.6967 112.06 65.71V66.61C111.72 66.61 111.43 66.6567 111.19 66.75C110.95 66.8433 110.757 66.98 110.61 67.16C110.464 67.34 110.357 67.56 110.29 67.82C110.224 68.0733 110.19 68.3667 110.19 68.7V71H109.34V65.83Z" fill="#281F5E"/>
</svg>
